<mxfile host="app.diagrams.net" modified="2024-06-14T11:16:00.375Z" agent="Mozilla/5.0 (Windows NT 10.0; Win64; x64) AppleWebKit/537.36 (KHTML, like Gecko) Chrome/121.0.0.0 Safari/537.36" etag="M6Vk1XJMRgsvLP_UPVTr" version="24.5.4" type="device">
  <diagram name="Página-1" id="ToC_K7_3noXc_YA-z4Sv">
    <mxGraphModel dx="1434" dy="1951" grid="1" gridSize="10" guides="1" tooltips="1" connect="1" arrows="1" fold="1" page="1" pageScale="1" pageWidth="827" pageHeight="1169" math="0" shadow="0">
      <root>
        <mxCell id="0" />
        <mxCell id="1" parent="0" />
        <mxCell id="uq9chqA1jIwlqfnX0zTk-1" style="edgeStyle=orthogonalEdgeStyle;rounded=0;orthogonalLoop=1;jettySize=auto;html=1;entryX=0.5;entryY=0;entryDx=0;entryDy=0;" parent="1" source="uq9chqA1jIwlqfnX0zTk-2" target="uq9chqA1jIwlqfnX0zTk-7" edge="1">
          <mxGeometry relative="1" as="geometry" />
        </mxCell>
        <mxCell id="uq9chqA1jIwlqfnX0zTk-2" value="&lt;p style=&quot;line-height: 120%;&quot;&gt;&lt;font style=&quot;font-size: 24px;&quot;&gt;Inicio&lt;/font&gt;&lt;/p&gt;" style="ellipse;whiteSpace=wrap;html=1;" parent="1" vertex="1">
          <mxGeometry x="70" y="270" width="160" height="80" as="geometry" />
        </mxCell>
        <mxCell id="uq9chqA1jIwlqfnX0zTk-3" style="edgeStyle=orthogonalEdgeStyle;rounded=0;orthogonalLoop=1;jettySize=auto;html=1;entryX=0;entryY=0.5;entryDx=0;entryDy=0;" parent="1" source="uq9chqA1jIwlqfnX0zTk-7" target="uq9chqA1jIwlqfnX0zTk-9" edge="1">
          <mxGeometry relative="1" as="geometry" />
        </mxCell>
        <mxCell id="uq9chqA1jIwlqfnX0zTk-4" value="Sim" style="edgeLabel;html=1;align=center;verticalAlign=middle;resizable=0;points=[];" parent="uq9chqA1jIwlqfnX0zTk-3" vertex="1" connectable="0">
          <mxGeometry x="-0.2" y="-2" relative="1" as="geometry">
            <mxPoint as="offset" />
          </mxGeometry>
        </mxCell>
        <mxCell id="uq9chqA1jIwlqfnX0zTk-5" style="edgeStyle=orthogonalEdgeStyle;rounded=0;orthogonalLoop=1;jettySize=auto;html=1;exitX=0.5;exitY=1;exitDx=0;exitDy=0;" parent="1" source="uq9chqA1jIwlqfnX0zTk-7" target="uq9chqA1jIwlqfnX0zTk-39" edge="1">
          <mxGeometry relative="1" as="geometry" />
        </mxCell>
        <mxCell id="uq9chqA1jIwlqfnX0zTk-6" value="Não" style="edgeLabel;html=1;align=center;verticalAlign=middle;resizable=0;points=[];" parent="uq9chqA1jIwlqfnX0zTk-5" vertex="1" connectable="0">
          <mxGeometry x="-0.4793" y="-1" relative="1" as="geometry">
            <mxPoint x="-19" y="6" as="offset" />
          </mxGeometry>
        </mxCell>
        <mxCell id="uq9chqA1jIwlqfnX0zTk-7" value="Tem Cadastro?" style="rhombus;whiteSpace=wrap;html=1;" parent="1" vertex="1">
          <mxGeometry x="105" y="390" width="90" height="90" as="geometry" />
        </mxCell>
        <mxCell id="uq9chqA1jIwlqfnX0zTk-8" style="edgeStyle=orthogonalEdgeStyle;rounded=0;orthogonalLoop=1;jettySize=auto;html=1;exitX=1;exitY=0.5;exitDx=0;exitDy=0;entryX=0;entryY=0.5;entryDx=0;entryDy=0;" parent="1" source="uq9chqA1jIwlqfnX0zTk-9" target="uq9chqA1jIwlqfnX0zTk-14" edge="1">
          <mxGeometry relative="1" as="geometry" />
        </mxCell>
        <mxCell id="uq9chqA1jIwlqfnX0zTk-9" value="Buscar Cadastro" style="rounded=0;whiteSpace=wrap;html=1;" parent="1" vertex="1">
          <mxGeometry x="250" y="415" width="100" height="40" as="geometry" />
        </mxCell>
        <mxCell id="uq9chqA1jIwlqfnX0zTk-10" style="edgeStyle=orthogonalEdgeStyle;rounded=0;orthogonalLoop=1;jettySize=auto;html=1;exitX=0.5;exitY=1;exitDx=0;exitDy=0;entryX=0.5;entryY=1;entryDx=0;entryDy=0;" parent="1" source="uq9chqA1jIwlqfnX0zTk-14" target="uq9chqA1jIwlqfnX0zTk-9" edge="1">
          <mxGeometry relative="1" as="geometry" />
        </mxCell>
        <mxCell id="uq9chqA1jIwlqfnX0zTk-11" value="Não" style="edgeLabel;html=1;align=center;verticalAlign=middle;resizable=0;points=[];" parent="uq9chqA1jIwlqfnX0zTk-10" vertex="1" connectable="0">
          <mxGeometry x="-0.1822" y="-3" relative="1" as="geometry">
            <mxPoint as="offset" />
          </mxGeometry>
        </mxCell>
        <mxCell id="uq9chqA1jIwlqfnX0zTk-12" style="edgeStyle=orthogonalEdgeStyle;rounded=0;orthogonalLoop=1;jettySize=auto;html=1;exitX=1;exitY=0.5;exitDx=0;exitDy=0;entryX=0;entryY=0.5;entryDx=0;entryDy=0;" parent="1" source="uq9chqA1jIwlqfnX0zTk-14" target="uq9chqA1jIwlqfnX0zTk-19" edge="1">
          <mxGeometry relative="1" as="geometry" />
        </mxCell>
        <mxCell id="uq9chqA1jIwlqfnX0zTk-13" value="Sim" style="edgeLabel;html=1;align=center;verticalAlign=middle;resizable=0;points=[];" parent="uq9chqA1jIwlqfnX0zTk-12" vertex="1" connectable="0">
          <mxGeometry x="0.0867" relative="1" as="geometry">
            <mxPoint as="offset" />
          </mxGeometry>
        </mxCell>
        <mxCell id="uq9chqA1jIwlqfnX0zTk-14" value="Cadastro Encontrado" style="rhombus;whiteSpace=wrap;html=1;" parent="1" vertex="1">
          <mxGeometry x="390" y="390" width="90" height="90" as="geometry" />
        </mxCell>
        <mxCell id="uq9chqA1jIwlqfnX0zTk-15" style="edgeStyle=orthogonalEdgeStyle;rounded=0;orthogonalLoop=1;jettySize=auto;html=1;exitX=0.5;exitY=1;exitDx=0;exitDy=0;entryX=0.5;entryY=0;entryDx=0;entryDy=0;" parent="1" source="uq9chqA1jIwlqfnX0zTk-19" target="uq9chqA1jIwlqfnX0zTk-24" edge="1">
          <mxGeometry relative="1" as="geometry" />
        </mxCell>
        <mxCell id="uq9chqA1jIwlqfnX0zTk-16" value="Sim" style="edgeLabel;html=1;align=center;verticalAlign=middle;resizable=0;points=[];" parent="uq9chqA1jIwlqfnX0zTk-15" vertex="1" connectable="0">
          <mxGeometry x="-0.379" y="-1" relative="1" as="geometry">
            <mxPoint as="offset" />
          </mxGeometry>
        </mxCell>
        <mxCell id="uq9chqA1jIwlqfnX0zTk-17" style="edgeStyle=orthogonalEdgeStyle;rounded=0;orthogonalLoop=1;jettySize=auto;html=1;exitX=1;exitY=0.5;exitDx=0;exitDy=0;entryX=0;entryY=0.5;entryDx=0;entryDy=0;" parent="1" source="uq9chqA1jIwlqfnX0zTk-19" target="uq9chqA1jIwlqfnX0zTk-31" edge="1">
          <mxGeometry relative="1" as="geometry" />
        </mxCell>
        <mxCell id="uq9chqA1jIwlqfnX0zTk-18" value="Não" style="edgeLabel;html=1;align=center;verticalAlign=middle;resizable=0;points=[];" parent="uq9chqA1jIwlqfnX0zTk-17" vertex="1" connectable="0">
          <mxGeometry x="-0.2212" y="3" relative="1" as="geometry">
            <mxPoint as="offset" />
          </mxGeometry>
        </mxCell>
        <mxCell id="uq9chqA1jIwlqfnX0zTk-19" value="Apagar ?" style="rhombus;whiteSpace=wrap;html=1;" parent="1" vertex="1">
          <mxGeometry x="540" y="390" width="90" height="90" as="geometry" />
        </mxCell>
        <mxCell id="uq9chqA1jIwlqfnX0zTk-20" style="edgeStyle=orthogonalEdgeStyle;rounded=0;orthogonalLoop=1;jettySize=auto;html=1;exitX=0.5;exitY=1;exitDx=0;exitDy=0;entryX=0.5;entryY=0;entryDx=0;entryDy=0;" parent="1" source="uq9chqA1jIwlqfnX0zTk-24" target="uq9chqA1jIwlqfnX0zTk-26" edge="1">
          <mxGeometry relative="1" as="geometry" />
        </mxCell>
        <mxCell id="uq9chqA1jIwlqfnX0zTk-21" value="Sim" style="edgeLabel;html=1;align=center;verticalAlign=middle;resizable=0;points=[];" parent="uq9chqA1jIwlqfnX0zTk-20" vertex="1" connectable="0">
          <mxGeometry x="-0.4247" y="-1" relative="1" as="geometry">
            <mxPoint x="-14" y="17" as="offset" />
          </mxGeometry>
        </mxCell>
        <mxCell id="uq9chqA1jIwlqfnX0zTk-22" style="edgeStyle=orthogonalEdgeStyle;rounded=0;orthogonalLoop=1;jettySize=auto;html=1;entryX=1;entryY=1;entryDx=0;entryDy=0;" parent="1" source="uq9chqA1jIwlqfnX0zTk-24" target="uq9chqA1jIwlqfnX0zTk-14" edge="1">
          <mxGeometry relative="1" as="geometry" />
        </mxCell>
        <mxCell id="uq9chqA1jIwlqfnX0zTk-23" value="Não" style="edgeLabel;html=1;align=center;verticalAlign=middle;resizable=0;points=[];" parent="uq9chqA1jIwlqfnX0zTk-22" vertex="1" connectable="0">
          <mxGeometry x="-0.3853" y="2" relative="1" as="geometry">
            <mxPoint as="offset" />
          </mxGeometry>
        </mxCell>
        <mxCell id="uq9chqA1jIwlqfnX0zTk-24" value="Confirmação ?" style="rhombus;whiteSpace=wrap;html=1;" parent="1" vertex="1">
          <mxGeometry x="540" y="520" width="90" height="90" as="geometry" />
        </mxCell>
        <mxCell id="uq9chqA1jIwlqfnX0zTk-25" style="edgeStyle=orthogonalEdgeStyle;rounded=0;orthogonalLoop=1;jettySize=auto;html=1;entryX=0;entryY=0.5;entryDx=0;entryDy=0;" parent="1" source="uq9chqA1jIwlqfnX0zTk-26" target="uq9chqA1jIwlqfnX0zTk-7" edge="1">
          <mxGeometry relative="1" as="geometry" />
        </mxCell>
        <mxCell id="uq9chqA1jIwlqfnX0zTk-26" value="Cadastro apagado" style="rounded=0;whiteSpace=wrap;html=1;" parent="1" vertex="1">
          <mxGeometry x="530" y="700" width="110" height="40" as="geometry" />
        </mxCell>
        <mxCell id="uq9chqA1jIwlqfnX0zTk-27" style="edgeStyle=orthogonalEdgeStyle;rounded=0;orthogonalLoop=1;jettySize=auto;html=1;entryX=0.5;entryY=0;entryDx=0;entryDy=0;" parent="1" source="uq9chqA1jIwlqfnX0zTk-31" target="uq9chqA1jIwlqfnX0zTk-36" edge="1">
          <mxGeometry relative="1" as="geometry" />
        </mxCell>
        <mxCell id="uq9chqA1jIwlqfnX0zTk-28" value="Sim" style="edgeLabel;html=1;align=center;verticalAlign=middle;resizable=0;points=[];" parent="uq9chqA1jIwlqfnX0zTk-27" vertex="1" connectable="0">
          <mxGeometry x="-0.329" y="-1" relative="1" as="geometry">
            <mxPoint as="offset" />
          </mxGeometry>
        </mxCell>
        <mxCell id="uq9chqA1jIwlqfnX0zTk-29" style="edgeStyle=orthogonalEdgeStyle;rounded=0;orthogonalLoop=1;jettySize=auto;html=1;exitX=0.5;exitY=0;exitDx=0;exitDy=0;entryX=0.75;entryY=0;entryDx=0;entryDy=0;" parent="1" source="uq9chqA1jIwlqfnX0zTk-31" target="uq9chqA1jIwlqfnX0zTk-9" edge="1">
          <mxGeometry relative="1" as="geometry" />
        </mxCell>
        <mxCell id="uq9chqA1jIwlqfnX0zTk-30" value="Não" style="edgeLabel;html=1;align=center;verticalAlign=middle;resizable=0;points=[];" parent="uq9chqA1jIwlqfnX0zTk-29" vertex="1" connectable="0">
          <mxGeometry x="-0.5344" y="-1" relative="1" as="geometry">
            <mxPoint as="offset" />
          </mxGeometry>
        </mxCell>
        <mxCell id="uq9chqA1jIwlqfnX0zTk-31" value="Atualizar" style="rhombus;whiteSpace=wrap;html=1;" parent="1" vertex="1">
          <mxGeometry x="690" y="395" width="80" height="80" as="geometry" />
        </mxCell>
        <mxCell id="uq9chqA1jIwlqfnX0zTk-32" style="edgeStyle=orthogonalEdgeStyle;rounded=0;orthogonalLoop=1;jettySize=auto;html=1;exitX=1;exitY=0.5;exitDx=0;exitDy=0;entryX=1;entryY=0.5;entryDx=0;entryDy=0;" parent="1" source="uq9chqA1jIwlqfnX0zTk-36" target="uq9chqA1jIwlqfnX0zTk-31" edge="1">
          <mxGeometry relative="1" as="geometry" />
        </mxCell>
        <mxCell id="uq9chqA1jIwlqfnX0zTk-33" value="Não" style="edgeLabel;html=1;align=center;verticalAlign=middle;resizable=0;points=[];" parent="uq9chqA1jIwlqfnX0zTk-32" vertex="1" connectable="0">
          <mxGeometry x="0.263" y="-2" relative="1" as="geometry">
            <mxPoint as="offset" />
          </mxGeometry>
        </mxCell>
        <mxCell id="uq9chqA1jIwlqfnX0zTk-34" style="edgeStyle=orthogonalEdgeStyle;rounded=0;orthogonalLoop=1;jettySize=auto;html=1;exitX=0.5;exitY=1;exitDx=0;exitDy=0;entryX=0.5;entryY=0;entryDx=0;entryDy=0;" parent="1" source="uq9chqA1jIwlqfnX0zTk-36" target="uq9chqA1jIwlqfnX0zTk-37" edge="1">
          <mxGeometry relative="1" as="geometry" />
        </mxCell>
        <mxCell id="uq9chqA1jIwlqfnX0zTk-35" value="Sim" style="edgeLabel;html=1;align=center;verticalAlign=middle;resizable=0;points=[];" parent="uq9chqA1jIwlqfnX0zTk-34" vertex="1" connectable="0">
          <mxGeometry x="-0.1749" y="2" relative="1" as="geometry">
            <mxPoint as="offset" />
          </mxGeometry>
        </mxCell>
        <mxCell id="uq9chqA1jIwlqfnX0zTk-36" value="Dados Válidos" style="rhombus;whiteSpace=wrap;html=1;" parent="1" vertex="1">
          <mxGeometry x="695" y="527.5" width="70" height="75" as="geometry" />
        </mxCell>
        <mxCell id="uq9chqA1jIwlqfnX0zTk-37" value="Cadastro Atualizado" style="rounded=0;whiteSpace=wrap;html=1;" parent="1" vertex="1">
          <mxGeometry x="675" y="660" width="110" height="40" as="geometry" />
        </mxCell>
        <mxCell id="uq9chqA1jIwlqfnX0zTk-38" style="edgeStyle=orthogonalEdgeStyle;rounded=0;orthogonalLoop=1;jettySize=auto;html=1;entryX=0.5;entryY=0;entryDx=0;entryDy=0;" parent="1" source="uq9chqA1jIwlqfnX0zTk-39" target="uq9chqA1jIwlqfnX0zTk-45" edge="1">
          <mxGeometry relative="1" as="geometry" />
        </mxCell>
        <mxCell id="uq9chqA1jIwlqfnX0zTk-39" value="Cadastrar" style="rounded=0;whiteSpace=wrap;html=1;" parent="1" vertex="1">
          <mxGeometry x="105" y="527.5" width="90" height="30" as="geometry" />
        </mxCell>
        <mxCell id="uq9chqA1jIwlqfnX0zTk-41" style="edgeStyle=orthogonalEdgeStyle;rounded=0;orthogonalLoop=1;jettySize=auto;html=1;entryX=0;entryY=0.5;entryDx=0;entryDy=0;" parent="1" source="uq9chqA1jIwlqfnX0zTk-45" target="uq9chqA1jIwlqfnX0zTk-47" edge="1">
          <mxGeometry relative="1" as="geometry" />
        </mxCell>
        <mxCell id="uq9chqA1jIwlqfnX0zTk-42" value="Não" style="edgeLabel;html=1;align=center;verticalAlign=middle;resizable=0;points=[];" parent="uq9chqA1jIwlqfnX0zTk-41" vertex="1" connectable="0">
          <mxGeometry x="0.0038" relative="1" as="geometry">
            <mxPoint x="-15" y="-3" as="offset" />
          </mxGeometry>
        </mxCell>
        <mxCell id="uq9chqA1jIwlqfnX0zTk-45" value="Dados Válidos" style="rhombus;whiteSpace=wrap;html=1;" parent="1" vertex="1">
          <mxGeometry x="105" y="606.25" width="90" height="75" as="geometry" />
        </mxCell>
        <mxCell id="uq9chqA1jIwlqfnX0zTk-46" style="edgeStyle=orthogonalEdgeStyle;rounded=0;orthogonalLoop=1;jettySize=auto;html=1;entryX=1;entryY=0.5;entryDx=0;entryDy=0;" parent="1" source="uq9chqA1jIwlqfnX0zTk-47" target="uq9chqA1jIwlqfnX0zTk-39" edge="1">
          <mxGeometry relative="1" as="geometry">
            <Array as="points">
              <mxPoint x="272" y="543" />
            </Array>
          </mxGeometry>
        </mxCell>
        <mxCell id="uq9chqA1jIwlqfnX0zTk-47" value="Mostrar Erro" style="rounded=0;whiteSpace=wrap;html=1;" parent="1" vertex="1">
          <mxGeometry x="232" y="585" width="83" height="30" as="geometry" />
        </mxCell>
        <mxCell id="WmbxqslVKY_WEtifSj2N-9" style="edgeStyle=orthogonalEdgeStyle;rounded=0;orthogonalLoop=1;jettySize=auto;html=1;exitX=0.75;exitY=0;exitDx=0;exitDy=0;entryX=0.25;entryY=1;entryDx=0;entryDy=0;" parent="1" source="uq9chqA1jIwlqfnX0zTk-49" target="uq9chqA1jIwlqfnX0zTk-9" edge="1">
          <mxGeometry relative="1" as="geometry">
            <Array as="points">
              <mxPoint x="333" y="530" />
              <mxPoint x="275" y="530" />
            </Array>
          </mxGeometry>
        </mxCell>
        <mxCell id="uq9chqA1jIwlqfnX0zTk-49" value="Cadastro Realizado" style="rounded=0;whiteSpace=wrap;html=1;" parent="1" vertex="1">
          <mxGeometry x="250" y="648.75" width="110" height="32.5" as="geometry" />
        </mxCell>
        <mxCell id="uq9chqA1jIwlqfnX0zTk-50" style="edgeStyle=orthogonalEdgeStyle;rounded=0;orthogonalLoop=1;jettySize=auto;html=1;exitX=0.5;exitY=1;exitDx=0;exitDy=0;entryX=0.5;entryY=0;entryDx=0;entryDy=0;" parent="1" edge="1">
          <mxGeometry relative="1" as="geometry">
            <mxPoint x="1296" y="474.9999999999999" as="sourcePoint" />
          </mxGeometry>
        </mxCell>
        <mxCell id="uq9chqA1jIwlqfnX0zTk-51" style="edgeStyle=orthogonalEdgeStyle;rounded=0;orthogonalLoop=1;jettySize=auto;html=1;exitX=0.5;exitY=1;exitDx=0;exitDy=0;entryX=0.5;entryY=0;entryDx=0;entryDy=0;" parent="1" edge="1">
          <mxGeometry relative="1" as="geometry">
            <mxPoint x="1296" y="605.0000000000001" as="sourcePoint" />
          </mxGeometry>
        </mxCell>
        <mxCell id="uq9chqA1jIwlqfnX0zTk-52" style="edgeStyle=orthogonalEdgeStyle;rounded=0;orthogonalLoop=1;jettySize=auto;html=1;entryX=0;entryY=0.5;entryDx=0;entryDy=0;" parent="1" edge="1">
          <mxGeometry relative="1" as="geometry">
            <mxPoint x="1480" y="345" as="targetPoint" />
          </mxGeometry>
        </mxCell>
        <mxCell id="uq9chqA1jIwlqfnX0zTk-53" style="edgeStyle=orthogonalEdgeStyle;rounded=0;orthogonalLoop=1;jettySize=auto;html=1;entryX=0;entryY=0.5;entryDx=0;entryDy=0;" parent="1" source="uq9chqA1jIwlqfnX0zTk-57" target="uq9chqA1jIwlqfnX0zTk-59" edge="1">
          <mxGeometry relative="1" as="geometry">
            <mxPoint x="1470" y="310" as="targetPoint" />
          </mxGeometry>
        </mxCell>
        <mxCell id="uq9chqA1jIwlqfnX0zTk-54" value="Não" style="edgeLabel;html=1;align=center;verticalAlign=middle;resizable=0;points=[];" parent="uq9chqA1jIwlqfnX0zTk-53" vertex="1" connectable="0">
          <mxGeometry x="0.0857" relative="1" as="geometry">
            <mxPoint as="offset" />
          </mxGeometry>
        </mxCell>
        <mxCell id="uq9chqA1jIwlqfnX0zTk-55" style="edgeStyle=orthogonalEdgeStyle;rounded=0;orthogonalLoop=1;jettySize=auto;html=1;entryX=0.5;entryY=0;entryDx=0;entryDy=0;" parent="1" source="uq9chqA1jIwlqfnX0zTk-57" target="uq9chqA1jIwlqfnX0zTk-64" edge="1">
          <mxGeometry relative="1" as="geometry" />
        </mxCell>
        <mxCell id="uq9chqA1jIwlqfnX0zTk-56" value="Sim" style="edgeLabel;html=1;align=center;verticalAlign=middle;resizable=0;points=[];" parent="uq9chqA1jIwlqfnX0zTk-55" vertex="1" connectable="0">
          <mxGeometry x="-0.4415" y="1" relative="1" as="geometry">
            <mxPoint as="offset" />
          </mxGeometry>
        </mxCell>
        <mxCell id="uq9chqA1jIwlqfnX0zTk-57" value="Tem a ver?" style="rhombus;whiteSpace=wrap;html=1;fillColor=#f8cecc;strokeColor=#b85450;" parent="1" vertex="1">
          <mxGeometry x="1256" y="390" width="80" height="80" as="geometry" />
        </mxCell>
        <mxCell id="uq9chqA1jIwlqfnX0zTk-58" style="edgeStyle=orthogonalEdgeStyle;rounded=0;orthogonalLoop=1;jettySize=auto;html=1;entryX=0.5;entryY=0;entryDx=0;entryDy=0;" parent="1" source="uq9chqA1jIwlqfnX0zTk-59" target="uq9chqA1jIwlqfnX0zTk-85" edge="1">
          <mxGeometry relative="1" as="geometry" />
        </mxCell>
        <mxCell id="uq9chqA1jIwlqfnX0zTk-59" value="Adicionar" style="rounded=0;whiteSpace=wrap;html=1;fillColor=#fff2cc;strokeColor=#d6b656;" parent="1" vertex="1">
          <mxGeometry x="1430" y="415" width="80" height="30" as="geometry" />
        </mxCell>
        <mxCell id="uq9chqA1jIwlqfnX0zTk-60" style="edgeStyle=orthogonalEdgeStyle;rounded=0;orthogonalLoop=1;jettySize=auto;html=1;entryX=0.5;entryY=0;entryDx=0;entryDy=0;" parent="1" source="uq9chqA1jIwlqfnX0zTk-64" target="uq9chqA1jIwlqfnX0zTk-69" edge="1">
          <mxGeometry relative="1" as="geometry" />
        </mxCell>
        <mxCell id="uq9chqA1jIwlqfnX0zTk-61" value="Sim" style="edgeLabel;html=1;align=center;verticalAlign=middle;resizable=0;points=[];" parent="uq9chqA1jIwlqfnX0zTk-60" vertex="1" connectable="0">
          <mxGeometry x="-0.6101" relative="1" as="geometry">
            <mxPoint as="offset" />
          </mxGeometry>
        </mxCell>
        <mxCell id="uq9chqA1jIwlqfnX0zTk-62" style="edgeStyle=orthogonalEdgeStyle;rounded=0;orthogonalLoop=1;jettySize=auto;html=1;entryX=1;entryY=0.5;entryDx=0;entryDy=0;" parent="1" source="uq9chqA1jIwlqfnX0zTk-64" target="uq9chqA1jIwlqfnX0zTk-74" edge="1">
          <mxGeometry relative="1" as="geometry" />
        </mxCell>
        <mxCell id="uq9chqA1jIwlqfnX0zTk-63" value="Não" style="edgeLabel;html=1;align=center;verticalAlign=middle;resizable=0;points=[];" parent="uq9chqA1jIwlqfnX0zTk-62" vertex="1" connectable="0">
          <mxGeometry x="-0.4077" relative="1" as="geometry">
            <mxPoint as="offset" />
          </mxGeometry>
        </mxCell>
        <mxCell id="uq9chqA1jIwlqfnX0zTk-64" value="Apagar?" style="rhombus;whiteSpace=wrap;html=1;fillColor=#f8cecc;strokeColor=#b85450;" parent="1" vertex="1">
          <mxGeometry x="1256" y="507.5" width="80" height="80" as="geometry" />
        </mxCell>
        <mxCell id="uq9chqA1jIwlqfnX0zTk-65" style="edgeStyle=orthogonalEdgeStyle;rounded=0;orthogonalLoop=1;jettySize=auto;html=1;entryX=0.5;entryY=0;entryDx=0;entryDy=0;" parent="1" source="uq9chqA1jIwlqfnX0zTk-69" target="uq9chqA1jIwlqfnX0zTk-91" edge="1">
          <mxGeometry relative="1" as="geometry" />
        </mxCell>
        <mxCell id="uq9chqA1jIwlqfnX0zTk-66" value="Sim" style="edgeLabel;html=1;align=center;verticalAlign=middle;resizable=0;points=[];" parent="uq9chqA1jIwlqfnX0zTk-65" vertex="1" connectable="0">
          <mxGeometry x="-0.7182" relative="1" as="geometry">
            <mxPoint as="offset" />
          </mxGeometry>
        </mxCell>
        <mxCell id="uq9chqA1jIwlqfnX0zTk-67" style="edgeStyle=orthogonalEdgeStyle;rounded=0;orthogonalLoop=1;jettySize=auto;html=1;entryX=1;entryY=0.5;entryDx=0;entryDy=0;" parent="1" source="uq9chqA1jIwlqfnX0zTk-69" target="uq9chqA1jIwlqfnX0zTk-64" edge="1">
          <mxGeometry relative="1" as="geometry">
            <Array as="points">
              <mxPoint x="1356" y="673" />
              <mxPoint x="1356" y="548" />
            </Array>
          </mxGeometry>
        </mxCell>
        <mxCell id="uq9chqA1jIwlqfnX0zTk-68" value="Não" style="edgeLabel;html=1;align=center;verticalAlign=middle;resizable=0;points=[];" parent="uq9chqA1jIwlqfnX0zTk-67" vertex="1" connectable="0">
          <mxGeometry x="-0.2625" y="1" relative="1" as="geometry">
            <mxPoint as="offset" />
          </mxGeometry>
        </mxCell>
        <mxCell id="uq9chqA1jIwlqfnX0zTk-69" value="Confirmar" style="rhombus;whiteSpace=wrap;html=1;fillColor=#f8cecc;strokeColor=#b85450;" parent="1" vertex="1">
          <mxGeometry x="1256" y="632.5" width="80" height="80" as="geometry" />
        </mxCell>
        <mxCell id="uq9chqA1jIwlqfnX0zTk-70" style="edgeStyle=orthogonalEdgeStyle;rounded=0;orthogonalLoop=1;jettySize=auto;html=1;entryX=0.5;entryY=0;entryDx=0;entryDy=0;" parent="1" source="uq9chqA1jIwlqfnX0zTk-74" target="uq9chqA1jIwlqfnX0zTk-79" edge="1">
          <mxGeometry relative="1" as="geometry" />
        </mxCell>
        <mxCell id="uq9chqA1jIwlqfnX0zTk-71" value="Sim" style="edgeLabel;html=1;align=center;verticalAlign=middle;resizable=0;points=[];" parent="uq9chqA1jIwlqfnX0zTk-70" vertex="1" connectable="0">
          <mxGeometry x="-0.525" y="4" relative="1" as="geometry">
            <mxPoint as="offset" />
          </mxGeometry>
        </mxCell>
        <mxCell id="uq9chqA1jIwlqfnX0zTk-72" style="edgeStyle=orthogonalEdgeStyle;rounded=0;orthogonalLoop=1;jettySize=auto;html=1;exitX=0.5;exitY=0;exitDx=0;exitDy=0;entryX=0;entryY=1;entryDx=0;entryDy=0;" parent="1" source="uq9chqA1jIwlqfnX0zTk-74" target="uq9chqA1jIwlqfnX0zTk-57" edge="1">
          <mxGeometry relative="1" as="geometry">
            <Array as="points">
              <mxPoint x="1138" y="488" />
              <mxPoint x="1276" y="488" />
            </Array>
          </mxGeometry>
        </mxCell>
        <mxCell id="uq9chqA1jIwlqfnX0zTk-73" value="Não" style="edgeLabel;html=1;align=center;verticalAlign=middle;resizable=0;points=[];" parent="uq9chqA1jIwlqfnX0zTk-72" vertex="1" connectable="0">
          <mxGeometry x="-0.2389" y="-1" relative="1" as="geometry">
            <mxPoint as="offset" />
          </mxGeometry>
        </mxCell>
        <mxCell id="uq9chqA1jIwlqfnX0zTk-74" value="Atualizar" style="rhombus;whiteSpace=wrap;html=1;fillColor=#f8cecc;strokeColor=#b85450;" parent="1" vertex="1">
          <mxGeometry x="1097.5" y="507.5" width="80" height="80" as="geometry" />
        </mxCell>
        <mxCell id="uq9chqA1jIwlqfnX0zTk-75" style="edgeStyle=orthogonalEdgeStyle;rounded=0;orthogonalLoop=1;jettySize=auto;html=1;entryX=0.5;entryY=0;entryDx=0;entryDy=0;" parent="1" source="uq9chqA1jIwlqfnX0zTk-79" target="uq9chqA1jIwlqfnX0zTk-80" edge="1">
          <mxGeometry relative="1" as="geometry" />
        </mxCell>
        <mxCell id="uq9chqA1jIwlqfnX0zTk-76" value="Sim" style="edgeLabel;html=1;align=center;verticalAlign=middle;resizable=0;points=[];" parent="uq9chqA1jIwlqfnX0zTk-75" vertex="1" connectable="0">
          <mxGeometry x="-0.402" y="1" relative="1" as="geometry">
            <mxPoint as="offset" />
          </mxGeometry>
        </mxCell>
        <mxCell id="uq9chqA1jIwlqfnX0zTk-77" style="edgeStyle=orthogonalEdgeStyle;rounded=0;orthogonalLoop=1;jettySize=auto;html=1;entryX=0;entryY=0.5;entryDx=0;entryDy=0;" parent="1" source="uq9chqA1jIwlqfnX0zTk-79" target="uq9chqA1jIwlqfnX0zTk-74" edge="1">
          <mxGeometry relative="1" as="geometry">
            <Array as="points">
              <mxPoint x="1080" y="660.0000000000001" />
              <mxPoint x="1080" y="547" />
            </Array>
          </mxGeometry>
        </mxCell>
        <mxCell id="uq9chqA1jIwlqfnX0zTk-78" value="Não" style="edgeLabel;html=1;align=center;verticalAlign=middle;resizable=0;points=[];" parent="uq9chqA1jIwlqfnX0zTk-77" vertex="1" connectable="0">
          <mxGeometry x="0.1095" y="3" relative="1" as="geometry">
            <mxPoint as="offset" />
          </mxGeometry>
        </mxCell>
        <mxCell id="uq9chqA1jIwlqfnX0zTk-79" value="Dados Alterados&amp;nbsp;" style="rhombus;whiteSpace=wrap;html=1;fillColor=#f8cecc;strokeColor=#b85450;" parent="1" vertex="1">
          <mxGeometry x="1097.5" y="620" width="80" height="80" as="geometry" />
        </mxCell>
        <mxCell id="uq9chqA1jIwlqfnX0zTk-80" value="Dados Atualizados" style="rounded=0;whiteSpace=wrap;html=1;fillColor=#fff2cc;strokeColor=#d6b656;" parent="1" vertex="1">
          <mxGeometry x="1082.5" y="730" width="110" height="40" as="geometry" />
        </mxCell>
        <mxCell id="uq9chqA1jIwlqfnX0zTk-81" style="edgeStyle=orthogonalEdgeStyle;rounded=0;orthogonalLoop=1;jettySize=auto;html=1;exitX=0.5;exitY=1;exitDx=0;exitDy=0;entryX=0.5;entryY=0;entryDx=0;entryDy=0;" parent="1" source="uq9chqA1jIwlqfnX0zTk-85" target="uq9chqA1jIwlqfnX0zTk-87" edge="1">
          <mxGeometry relative="1" as="geometry" />
        </mxCell>
        <mxCell id="uq9chqA1jIwlqfnX0zTk-82" value="Sim" style="edgeLabel;html=1;align=center;verticalAlign=middle;resizable=0;points=[];" parent="uq9chqA1jIwlqfnX0zTk-81" vertex="1" connectable="0">
          <mxGeometry x="-0.3455" y="3" relative="1" as="geometry">
            <mxPoint as="offset" />
          </mxGeometry>
        </mxCell>
        <mxCell id="uq9chqA1jIwlqfnX0zTk-83" style="edgeStyle=orthogonalEdgeStyle;rounded=0;orthogonalLoop=1;jettySize=auto;html=1;exitX=1;exitY=0.5;exitDx=0;exitDy=0;entryX=0;entryY=0.5;entryDx=0;entryDy=0;" parent="1" source="uq9chqA1jIwlqfnX0zTk-85" target="uq9chqA1jIwlqfnX0zTk-89" edge="1">
          <mxGeometry relative="1" as="geometry" />
        </mxCell>
        <mxCell id="uq9chqA1jIwlqfnX0zTk-84" value="Não" style="edgeLabel;html=1;align=center;verticalAlign=middle;resizable=0;points=[];" parent="uq9chqA1jIwlqfnX0zTk-83" vertex="1" connectable="0">
          <mxGeometry x="0.0409" y="1" relative="1" as="geometry">
            <mxPoint as="offset" />
          </mxGeometry>
        </mxCell>
        <mxCell id="uq9chqA1jIwlqfnX0zTk-85" value="Dados Informados&amp;nbsp;" style="rhombus;whiteSpace=wrap;html=1;fillColor=#f8cecc;strokeColor=#b85450;" parent="1" vertex="1">
          <mxGeometry x="1420" y="480" width="100" height="70" as="geometry" />
        </mxCell>
        <mxCell id="uq9chqA1jIwlqfnX0zTk-86" style="edgeStyle=orthogonalEdgeStyle;rounded=0;orthogonalLoop=1;jettySize=auto;html=1;entryX=0;entryY=0;entryDx=0;entryDy=0;" parent="1" source="uq9chqA1jIwlqfnX0zTk-87" target="uq9chqA1jIwlqfnX0zTk-57" edge="1">
          <mxGeometry relative="1" as="geometry">
            <Array as="points">
              <mxPoint x="1750" y="618" />
              <mxPoint x="1750" y="320" />
              <mxPoint x="1276" y="320" />
            </Array>
          </mxGeometry>
        </mxCell>
        <mxCell id="uq9chqA1jIwlqfnX0zTk-87" value="A ver adicionado" style="rounded=0;whiteSpace=wrap;html=1;fillColor=#fff2cc;strokeColor=#d6b656;" parent="1" vertex="1">
          <mxGeometry x="1415" y="602.5" width="110" height="30" as="geometry" />
        </mxCell>
        <mxCell id="uq9chqA1jIwlqfnX0zTk-88" style="edgeStyle=orthogonalEdgeStyle;rounded=0;orthogonalLoop=1;jettySize=auto;html=1;entryX=1;entryY=0;entryDx=0;entryDy=0;" parent="1" source="uq9chqA1jIwlqfnX0zTk-89" target="uq9chqA1jIwlqfnX0zTk-57" edge="1">
          <mxGeometry relative="1" as="geometry">
            <Array as="points">
              <mxPoint x="1615" y="380" />
              <mxPoint x="1316" y="380" />
            </Array>
          </mxGeometry>
        </mxCell>
        <mxCell id="uq9chqA1jIwlqfnX0zTk-89" value="Adicionar Informações" style="rounded=0;whiteSpace=wrap;html=1;fillColor=#fff2cc;strokeColor=#d6b656;" parent="1" vertex="1">
          <mxGeometry x="1560" y="490" width="110" height="50" as="geometry" />
        </mxCell>
        <mxCell id="uq9chqA1jIwlqfnX0zTk-90" style="edgeStyle=orthogonalEdgeStyle;rounded=0;orthogonalLoop=1;jettySize=auto;html=1;entryX=1;entryY=1;entryDx=0;entryDy=0;" parent="1" source="uq9chqA1jIwlqfnX0zTk-91" target="uq9chqA1jIwlqfnX0zTk-57" edge="1">
          <mxGeometry relative="1" as="geometry">
            <Array as="points">
              <mxPoint x="1400" y="760" />
              <mxPoint x="1400" y="450" />
            </Array>
          </mxGeometry>
        </mxCell>
        <mxCell id="uq9chqA1jIwlqfnX0zTk-91" value="A ver apagado" style="rounded=0;whiteSpace=wrap;html=1;fillColor=#fff2cc;strokeColor=#d6b656;" parent="1" vertex="1">
          <mxGeometry x="1241" y="740" width="110" height="40" as="geometry" />
        </mxCell>
        <mxCell id="uq9chqA1jIwlqfnX0zTk-92" value="" style="edgeStyle=orthogonalEdgeStyle;rounded=0;orthogonalLoop=1;jettySize=auto;html=1;" parent="1" source="uq9chqA1jIwlqfnX0zTk-93" target="uq9chqA1jIwlqfnX0zTk-95" edge="1">
          <mxGeometry relative="1" as="geometry" />
        </mxCell>
        <mxCell id="uq9chqA1jIwlqfnX0zTk-93" value="&lt;p style=&quot;line-height: 120%;&quot;&gt;&lt;font style=&quot;font-size: 24px;&quot;&gt;Inicio&lt;/font&gt;&lt;/p&gt;" style="ellipse;whiteSpace=wrap;html=1;" parent="1" vertex="1">
          <mxGeometry x="933.75" y="825" width="160" height="80" as="geometry" />
        </mxCell>
        <mxCell id="uq9chqA1jIwlqfnX0zTk-94" value="" style="edgeStyle=orthogonalEdgeStyle;rounded=0;orthogonalLoop=1;jettySize=auto;html=1;" parent="1" source="uq9chqA1jIwlqfnX0zTk-95" target="uq9chqA1jIwlqfnX0zTk-100" edge="1">
          <mxGeometry relative="1" as="geometry" />
        </mxCell>
        <mxCell id="uq9chqA1jIwlqfnX0zTk-95" value="tela inicial" style="shape=offPageConnector;whiteSpace=wrap;html=1;" parent="1" vertex="1">
          <mxGeometry x="973.75" y="950" width="80" height="80" as="geometry" />
        </mxCell>
        <mxCell id="uq9chqA1jIwlqfnX0zTk-96" value="" style="edgeStyle=orthogonalEdgeStyle;rounded=0;orthogonalLoop=1;jettySize=auto;html=1;" parent="1" source="uq9chqA1jIwlqfnX0zTk-100" target="uq9chqA1jIwlqfnX0zTk-110" edge="1">
          <mxGeometry relative="1" as="geometry" />
        </mxCell>
        <mxCell id="uq9chqA1jIwlqfnX0zTk-97" value="não" style="edgeLabel;html=1;align=center;verticalAlign=middle;resizable=0;points=[];" parent="uq9chqA1jIwlqfnX0zTk-96" vertex="1" connectable="0">
          <mxGeometry x="-0.5415" y="1" relative="1" as="geometry">
            <mxPoint x="-15" y="7" as="offset" />
          </mxGeometry>
        </mxCell>
        <mxCell id="uq9chqA1jIwlqfnX0zTk-98" value="" style="edgeStyle=orthogonalEdgeStyle;rounded=0;orthogonalLoop=1;jettySize=auto;html=1;" parent="1" source="uq9chqA1jIwlqfnX0zTk-100" target="uq9chqA1jIwlqfnX0zTk-111" edge="1">
          <mxGeometry relative="1" as="geometry" />
        </mxCell>
        <mxCell id="uq9chqA1jIwlqfnX0zTk-99" value="sim" style="edgeLabel;html=1;align=center;verticalAlign=middle;resizable=0;points=[];" parent="uq9chqA1jIwlqfnX0zTk-98" vertex="1" connectable="0">
          <mxGeometry x="-0.1057" y="-1" relative="1" as="geometry">
            <mxPoint x="-8" y="-16" as="offset" />
          </mxGeometry>
        </mxCell>
        <mxCell id="uq9chqA1jIwlqfnX0zTk-100" value="ir tela de &quot;contas&lt;div&gt;a pagar&quot;&lt;/div&gt;" style="rhombus;whiteSpace=wrap;html=1;" parent="1" vertex="1">
          <mxGeometry x="965.6300000000001" y="1070" width="96.25" height="90" as="geometry" />
        </mxCell>
        <mxCell id="uq9chqA1jIwlqfnX0zTk-101" style="edgeStyle=orthogonalEdgeStyle;rounded=0;orthogonalLoop=1;jettySize=auto;html=1;exitX=0;exitY=0.5;exitDx=0;exitDy=0;entryX=0;entryY=0.25;entryDx=0;entryDy=0;" parent="1" source="uq9chqA1jIwlqfnX0zTk-105" target="uq9chqA1jIwlqfnX0zTk-95" edge="1">
          <mxGeometry relative="1" as="geometry">
            <Array as="points">
              <mxPoint x="910" y="1340" />
              <mxPoint x="910" y="970" />
            </Array>
          </mxGeometry>
        </mxCell>
        <mxCell id="uq9chqA1jIwlqfnX0zTk-102" value="não" style="edgeLabel;html=1;align=center;verticalAlign=middle;resizable=0;points=[];" parent="uq9chqA1jIwlqfnX0zTk-101" vertex="1" connectable="0">
          <mxGeometry x="0.0643" y="2" relative="1" as="geometry">
            <mxPoint x="-18" y="21" as="offset" />
          </mxGeometry>
        </mxCell>
        <mxCell id="uq9chqA1jIwlqfnX0zTk-103" value="" style="edgeStyle=orthogonalEdgeStyle;rounded=0;orthogonalLoop=1;jettySize=auto;html=1;" parent="1" source="uq9chqA1jIwlqfnX0zTk-105" target="uq9chqA1jIwlqfnX0zTk-113" edge="1">
          <mxGeometry relative="1" as="geometry" />
        </mxCell>
        <mxCell id="uq9chqA1jIwlqfnX0zTk-104" value="sim" style="edgeLabel;html=1;align=center;verticalAlign=middle;resizable=0;points=[];" parent="uq9chqA1jIwlqfnX0zTk-103" vertex="1" connectable="0">
          <mxGeometry x="-0.4841" y="-1" relative="1" as="geometry">
            <mxPoint x="11" y="-11" as="offset" />
          </mxGeometry>
        </mxCell>
        <mxCell id="uq9chqA1jIwlqfnX0zTk-105" value="ir tela de &quot;devedores&quot;" style="rhombus;whiteSpace=wrap;html=1;" parent="1" vertex="1">
          <mxGeometry x="973.75" y="1300" width="80" height="80" as="geometry" />
        </mxCell>
        <mxCell id="uq9chqA1jIwlqfnX0zTk-106" value="" style="edgeStyle=orthogonalEdgeStyle;rounded=0;orthogonalLoop=1;jettySize=auto;html=1;" parent="1" source="uq9chqA1jIwlqfnX0zTk-110" target="uq9chqA1jIwlqfnX0zTk-105" edge="1">
          <mxGeometry relative="1" as="geometry" />
        </mxCell>
        <mxCell id="uq9chqA1jIwlqfnX0zTk-107" value="não" style="edgeLabel;html=1;align=center;verticalAlign=middle;resizable=0;points=[];" parent="uq9chqA1jIwlqfnX0zTk-106" vertex="1" connectable="0">
          <mxGeometry x="0.4173" y="1" relative="1" as="geometry">
            <mxPoint x="-15" y="-4" as="offset" />
          </mxGeometry>
        </mxCell>
        <mxCell id="uq9chqA1jIwlqfnX0zTk-108" value="" style="edgeStyle=orthogonalEdgeStyle;rounded=0;orthogonalLoop=1;jettySize=auto;html=1;" parent="1" source="uq9chqA1jIwlqfnX0zTk-110" target="uq9chqA1jIwlqfnX0zTk-112" edge="1">
          <mxGeometry relative="1" as="geometry" />
        </mxCell>
        <mxCell id="uq9chqA1jIwlqfnX0zTk-109" value="sim" style="edgeLabel;html=1;align=center;verticalAlign=middle;resizable=0;points=[];" parent="uq9chqA1jIwlqfnX0zTk-108" vertex="1" connectable="0">
          <mxGeometry x="-0.2561" y="4" relative="1" as="geometry">
            <mxPoint x="2" y="-8" as="offset" />
          </mxGeometry>
        </mxCell>
        <mxCell id="uq9chqA1jIwlqfnX0zTk-110" value="ir tela de &quot;a receber&quot;" style="rhombus;whiteSpace=wrap;html=1;" parent="1" vertex="1">
          <mxGeometry x="973.76" y="1195" width="80" height="80" as="geometry" />
        </mxCell>
        <mxCell id="uq9chqA1jIwlqfnX0zTk-111" value="tela contas a pagar" style="rounded=0;whiteSpace=wrap;html=1;" parent="1" vertex="1">
          <mxGeometry x="1127" y="1097.5" width="104" height="35" as="geometry" />
        </mxCell>
        <mxCell id="uq9chqA1jIwlqfnX0zTk-112" value="tela a receber" style="rounded=0;whiteSpace=wrap;html=1;" parent="1" vertex="1">
          <mxGeometry x="1127" y="1222.5" width="90" height="25" as="geometry" />
        </mxCell>
        <mxCell id="uq9chqA1jIwlqfnX0zTk-113" value="tela devedores" style="rounded=0;whiteSpace=wrap;html=1;" parent="1" vertex="1">
          <mxGeometry x="1124.5" y="1325" width="109" height="30" as="geometry" />
        </mxCell>
        <mxCell id="uq9chqA1jIwlqfnX0zTk-114" style="edgeStyle=orthogonalEdgeStyle;rounded=0;orthogonalLoop=1;jettySize=auto;html=1;entryX=0;entryY=0.5;entryDx=0;entryDy=0;" parent="1" source="uq9chqA1jIwlqfnX0zTk-115" target="uq9chqA1jIwlqfnX0zTk-133" edge="1">
          <mxGeometry relative="1" as="geometry" />
        </mxCell>
        <mxCell id="uq9chqA1jIwlqfnX0zTk-115" value="&lt;p style=&quot;line-height: 120%;&quot;&gt;&lt;font style=&quot;font-size: 24px;&quot;&gt;Inicio&lt;/font&gt;&lt;/p&gt;" style="ellipse;whiteSpace=wrap;html=1;fillColor=#dae8fc;strokeColor=#6c8ebf;" parent="1" vertex="1">
          <mxGeometry x="2170" y="825" width="160" height="80" as="geometry" />
        </mxCell>
        <mxCell id="uq9chqA1jIwlqfnX0zTk-116" style="edgeStyle=orthogonalEdgeStyle;rounded=0;orthogonalLoop=1;jettySize=auto;html=1;entryX=0;entryY=0.5;entryDx=0;entryDy=0;" parent="1" edge="1">
          <mxGeometry relative="1" as="geometry">
            <mxPoint x="2035" y="865" as="sourcePoint" />
          </mxGeometry>
        </mxCell>
        <mxCell id="uq9chqA1jIwlqfnX0zTk-117" value="Sim" style="edgeLabel;html=1;align=center;verticalAlign=middle;resizable=0;points=[];" parent="uq9chqA1jIwlqfnX0zTk-116" vertex="1" connectable="0">
          <mxGeometry x="-0.2" y="-2" relative="1" as="geometry">
            <mxPoint as="offset" />
          </mxGeometry>
        </mxCell>
        <mxCell id="uq9chqA1jIwlqfnX0zTk-118" style="edgeStyle=orthogonalEdgeStyle;rounded=0;orthogonalLoop=1;jettySize=auto;html=1;exitX=0.5;exitY=1;exitDx=0;exitDy=0;" parent="1" edge="1">
          <mxGeometry relative="1" as="geometry">
            <mxPoint x="1990" y="910" as="sourcePoint" />
          </mxGeometry>
        </mxCell>
        <mxCell id="uq9chqA1jIwlqfnX0zTk-119" value="Não" style="edgeLabel;html=1;align=center;verticalAlign=middle;resizable=0;points=[];" parent="uq9chqA1jIwlqfnX0zTk-118" vertex="1" connectable="0">
          <mxGeometry x="-0.4793" y="-1" relative="1" as="geometry">
            <mxPoint as="offset" />
          </mxGeometry>
        </mxCell>
        <mxCell id="uq9chqA1jIwlqfnX0zTk-120" style="edgeStyle=orthogonalEdgeStyle;rounded=0;orthogonalLoop=1;jettySize=auto;html=1;exitX=1;exitY=0.5;exitDx=0;exitDy=0;entryX=0;entryY=0.5;entryDx=0;entryDy=0;" parent="1" edge="1">
          <mxGeometry relative="1" as="geometry">
            <mxPoint x="2190" y="865" as="sourcePoint" />
          </mxGeometry>
        </mxCell>
        <mxCell id="uq9chqA1jIwlqfnX0zTk-121" style="edgeStyle=orthogonalEdgeStyle;rounded=0;orthogonalLoop=1;jettySize=auto;html=1;exitX=0.5;exitY=1;exitDx=0;exitDy=0;entryX=0.5;entryY=1;entryDx=0;entryDy=0;" parent="1" edge="1">
          <mxGeometry relative="1" as="geometry">
            <mxPoint x="2140" y="885" as="targetPoint" />
          </mxGeometry>
        </mxCell>
        <mxCell id="uq9chqA1jIwlqfnX0zTk-122" value="Não" style="edgeLabel;html=1;align=center;verticalAlign=middle;resizable=0;points=[];" parent="uq9chqA1jIwlqfnX0zTk-121" vertex="1" connectable="0">
          <mxGeometry x="-0.1822" y="-3" relative="1" as="geometry">
            <mxPoint as="offset" />
          </mxGeometry>
        </mxCell>
        <mxCell id="uq9chqA1jIwlqfnX0zTk-123" style="edgeStyle=orthogonalEdgeStyle;rounded=0;orthogonalLoop=1;jettySize=auto;html=1;entryX=0.5;entryY=0;entryDx=0;entryDy=0;" parent="1" edge="1">
          <mxGeometry relative="1" as="geometry">
            <mxPoint x="1990" y="1015" as="targetPoint" />
          </mxGeometry>
        </mxCell>
        <mxCell id="uq9chqA1jIwlqfnX0zTk-124" style="edgeStyle=orthogonalEdgeStyle;rounded=0;orthogonalLoop=1;jettySize=auto;html=1;entryX=0;entryY=0.5;entryDx=0;entryDy=0;" parent="1" edge="1">
          <mxGeometry relative="1" as="geometry">
            <mxPoint x="2070" y="1002.5" as="targetPoint" />
          </mxGeometry>
        </mxCell>
        <mxCell id="uq9chqA1jIwlqfnX0zTk-125" value="Não" style="edgeLabel;html=1;align=center;verticalAlign=middle;resizable=0;points=[];" parent="uq9chqA1jIwlqfnX0zTk-124" vertex="1" connectable="0">
          <mxGeometry x="0.0038" relative="1" as="geometry">
            <mxPoint as="offset" />
          </mxGeometry>
        </mxCell>
        <mxCell id="uq9chqA1jIwlqfnX0zTk-126" style="edgeStyle=orthogonalEdgeStyle;rounded=0;orthogonalLoop=1;jettySize=auto;html=1;exitX=1;exitY=1;exitDx=0;exitDy=0;entryX=0;entryY=0.5;entryDx=0;entryDy=0;" parent="1" edge="1">
          <mxGeometry relative="1" as="geometry">
            <mxPoint x="2090" y="1066.25" as="targetPoint" />
          </mxGeometry>
        </mxCell>
        <mxCell id="uq9chqA1jIwlqfnX0zTk-127" value="Sim" style="edgeLabel;html=1;align=center;verticalAlign=middle;resizable=0;points=[];" parent="uq9chqA1jIwlqfnX0zTk-126" vertex="1" connectable="0">
          <mxGeometry x="-0.0777" relative="1" as="geometry">
            <mxPoint as="offset" />
          </mxGeometry>
        </mxCell>
        <mxCell id="uq9chqA1jIwlqfnX0zTk-128" style="edgeStyle=orthogonalEdgeStyle;rounded=0;orthogonalLoop=1;jettySize=auto;html=1;entryX=1;entryY=0.5;entryDx=0;entryDy=0;" parent="1" edge="1">
          <mxGeometry relative="1" as="geometry">
            <Array as="points">
              <mxPoint x="2112" y="973" />
            </Array>
            <mxPoint x="2111.5" y="987.5" as="sourcePoint" />
          </mxGeometry>
        </mxCell>
        <mxCell id="uq9chqA1jIwlqfnX0zTk-129" style="edgeStyle=orthogonalEdgeStyle;rounded=0;orthogonalLoop=1;jettySize=auto;html=1;exitX=1;exitY=0.5;exitDx=0;exitDy=0;entryX=1;entryY=1;entryDx=0;entryDy=0;" parent="1" edge="1">
          <mxGeometry relative="1" as="geometry">
            <Array as="points">
              <mxPoint x="2220" y="1066" />
              <mxPoint x="2220" y="950" />
              <mxPoint x="2013" y="950" />
            </Array>
            <mxPoint x="2012.5" y="887.5" as="targetPoint" />
          </mxGeometry>
        </mxCell>
        <mxCell id="uq9chqA1jIwlqfnX0zTk-130" style="edgeStyle=orthogonalEdgeStyle;rounded=0;orthogonalLoop=1;jettySize=auto;html=1;exitX=0.5;exitY=1;exitDx=0;exitDy=0;entryX=0.5;entryY=0;entryDx=0;entryDy=0;" parent="1" edge="1">
          <mxGeometry relative="1" as="geometry">
            <mxPoint x="1990" y="770" as="sourcePoint" />
          </mxGeometry>
        </mxCell>
        <mxCell id="uq9chqA1jIwlqfnX0zTk-131" style="edgeStyle=orthogonalEdgeStyle;rounded=0;orthogonalLoop=1;jettySize=auto;html=1;exitX=1;exitY=0;exitDx=0;exitDy=0;entryX=0;entryY=0.5;entryDx=0;entryDy=0;" parent="1" source="uq9chqA1jIwlqfnX0zTk-133" target="uq9chqA1jIwlqfnX0zTk-138" edge="1">
          <mxGeometry relative="1" as="geometry" />
        </mxCell>
        <mxCell id="uq9chqA1jIwlqfnX0zTk-132" style="edgeStyle=orthogonalEdgeStyle;rounded=0;orthogonalLoop=1;jettySize=auto;html=1;exitX=1;exitY=1;exitDx=0;exitDy=0;entryX=0;entryY=0.5;entryDx=0;entryDy=0;" parent="1" source="uq9chqA1jIwlqfnX0zTk-133" target="uq9chqA1jIwlqfnX0zTk-143" edge="1">
          <mxGeometry relative="1" as="geometry" />
        </mxCell>
        <mxCell id="uq9chqA1jIwlqfnX0zTk-133" value="Tela de Inicio" style="rounded=0;whiteSpace=wrap;html=1;fillColor=#fff2cc;strokeColor=#d6b656;" parent="1" vertex="1">
          <mxGeometry x="2380" y="847.5" width="120" height="35" as="geometry" />
        </mxCell>
        <mxCell id="uq9chqA1jIwlqfnX0zTk-134" style="edgeStyle=orthogonalEdgeStyle;rounded=0;orthogonalLoop=1;jettySize=auto;html=1;exitX=0.5;exitY=0;exitDx=0;exitDy=0;entryX=0.5;entryY=0;entryDx=0;entryDy=0;" parent="1" source="uq9chqA1jIwlqfnX0zTk-138" target="uq9chqA1jIwlqfnX0zTk-133" edge="1">
          <mxGeometry relative="1" as="geometry" />
        </mxCell>
        <mxCell id="uq9chqA1jIwlqfnX0zTk-135" value="Não" style="edgeLabel;html=1;align=center;verticalAlign=middle;resizable=0;points=[];" parent="uq9chqA1jIwlqfnX0zTk-134" vertex="1" connectable="0">
          <mxGeometry x="-0.2765" y="-1" relative="1" as="geometry">
            <mxPoint as="offset" />
          </mxGeometry>
        </mxCell>
        <mxCell id="uq9chqA1jIwlqfnX0zTk-136" value="" style="edgeStyle=orthogonalEdgeStyle;rounded=0;orthogonalLoop=1;jettySize=auto;html=1;" parent="1" source="uq9chqA1jIwlqfnX0zTk-138" target="uq9chqA1jIwlqfnX0zTk-203" edge="1">
          <mxGeometry relative="1" as="geometry" />
        </mxCell>
        <mxCell id="uq9chqA1jIwlqfnX0zTk-137" value="Sim" style="edgeLabel;html=1;align=center;verticalAlign=middle;resizable=0;points=[];" parent="uq9chqA1jIwlqfnX0zTk-136" vertex="1" connectable="0">
          <mxGeometry x="-0.24" y="-2" relative="1" as="geometry">
            <mxPoint as="offset" />
          </mxGeometry>
        </mxCell>
        <mxCell id="uq9chqA1jIwlqfnX0zTk-138" value="Devedores" style="rhombus;whiteSpace=wrap;html=1;fillColor=#f8cecc;strokeColor=#b85450;" parent="1" vertex="1">
          <mxGeometry x="2570" y="770" width="80" height="80" as="geometry" />
        </mxCell>
        <mxCell id="uq9chqA1jIwlqfnX0zTk-139" style="edgeStyle=orthogonalEdgeStyle;rounded=0;orthogonalLoop=1;jettySize=auto;html=1;exitX=0.5;exitY=1;exitDx=0;exitDy=0;entryX=0.5;entryY=1;entryDx=0;entryDy=0;" parent="1" source="uq9chqA1jIwlqfnX0zTk-143" target="uq9chqA1jIwlqfnX0zTk-133" edge="1">
          <mxGeometry relative="1" as="geometry" />
        </mxCell>
        <mxCell id="uq9chqA1jIwlqfnX0zTk-140" value="Não" style="edgeLabel;html=1;align=center;verticalAlign=middle;resizable=0;points=[];" parent="uq9chqA1jIwlqfnX0zTk-139" vertex="1" connectable="0">
          <mxGeometry x="-0.5419" y="1" relative="1" as="geometry">
            <mxPoint as="offset" />
          </mxGeometry>
        </mxCell>
        <mxCell id="uq9chqA1jIwlqfnX0zTk-141" style="edgeStyle=orthogonalEdgeStyle;rounded=0;orthogonalLoop=1;jettySize=auto;html=1;entryX=0;entryY=0.5;entryDx=0;entryDy=0;" parent="1" source="uq9chqA1jIwlqfnX0zTk-143" target="uq9chqA1jIwlqfnX0zTk-148" edge="1">
          <mxGeometry relative="1" as="geometry" />
        </mxCell>
        <mxCell id="uq9chqA1jIwlqfnX0zTk-142" value="Sim" style="edgeLabel;html=1;align=center;verticalAlign=middle;resizable=0;points=[];" parent="uq9chqA1jIwlqfnX0zTk-141" vertex="1" connectable="0">
          <mxGeometry x="-0.1688" relative="1" as="geometry">
            <mxPoint as="offset" />
          </mxGeometry>
        </mxCell>
        <mxCell id="uq9chqA1jIwlqfnX0zTk-143" value="Contas a pagar" style="rhombus;whiteSpace=wrap;html=1;fillColor=#f8cecc;strokeColor=#b85450;" parent="1" vertex="1">
          <mxGeometry x="2565" y="890" width="90" height="90" as="geometry" />
        </mxCell>
        <mxCell id="uq9chqA1jIwlqfnX0zTk-144" style="edgeStyle=orthogonalEdgeStyle;rounded=0;orthogonalLoop=1;jettySize=auto;html=1;exitX=0.5;exitY=1;exitDx=0;exitDy=0;entryX=0.5;entryY=0;entryDx=0;entryDy=0;" parent="1" source="uq9chqA1jIwlqfnX0zTk-148" target="uq9chqA1jIwlqfnX0zTk-153" edge="1">
          <mxGeometry relative="1" as="geometry" />
        </mxCell>
        <mxCell id="uq9chqA1jIwlqfnX0zTk-145" value="Sim" style="edgeLabel;html=1;align=center;verticalAlign=middle;resizable=0;points=[];" parent="uq9chqA1jIwlqfnX0zTk-144" vertex="1" connectable="0">
          <mxGeometry x="-0.3714" y="1" relative="1" as="geometry">
            <mxPoint as="offset" />
          </mxGeometry>
        </mxCell>
        <mxCell id="uq9chqA1jIwlqfnX0zTk-146" style="edgeStyle=orthogonalEdgeStyle;rounded=0;orthogonalLoop=1;jettySize=auto;html=1;entryX=0;entryY=0.5;entryDx=0;entryDy=0;" parent="1" source="uq9chqA1jIwlqfnX0zTk-148" target="uq9chqA1jIwlqfnX0zTk-234" edge="1">
          <mxGeometry relative="1" as="geometry" />
        </mxCell>
        <mxCell id="uq9chqA1jIwlqfnX0zTk-147" value="Não" style="edgeLabel;html=1;align=center;verticalAlign=middle;resizable=0;points=[];" parent="uq9chqA1jIwlqfnX0zTk-146" vertex="1" connectable="0">
          <mxGeometry x="-0.1" y="-1" relative="1" as="geometry">
            <mxPoint as="offset" />
          </mxGeometry>
        </mxCell>
        <mxCell id="uq9chqA1jIwlqfnX0zTk-148" value="Tem conta a pagar?" style="rhombus;whiteSpace=wrap;html=1;fillColor=#f8cecc;strokeColor=#b85450;" parent="1" vertex="1">
          <mxGeometry x="2710" y="892.5" width="90" height="85" as="geometry" />
        </mxCell>
        <mxCell id="uq9chqA1jIwlqfnX0zTk-149" value="" style="edgeStyle=orthogonalEdgeStyle;rounded=0;orthogonalLoop=1;jettySize=auto;html=1;" parent="1" source="uq9chqA1jIwlqfnX0zTk-153" target="uq9chqA1jIwlqfnX0zTk-158" edge="1">
          <mxGeometry relative="1" as="geometry" />
        </mxCell>
        <mxCell id="uq9chqA1jIwlqfnX0zTk-150" value="Sim" style="edgeLabel;html=1;align=center;verticalAlign=middle;resizable=0;points=[];" parent="uq9chqA1jIwlqfnX0zTk-149" vertex="1" connectable="0">
          <mxGeometry x="-0.45" y="-4" relative="1" as="geometry">
            <mxPoint as="offset" />
          </mxGeometry>
        </mxCell>
        <mxCell id="uq9chqA1jIwlqfnX0zTk-151" value="" style="edgeStyle=orthogonalEdgeStyle;rounded=0;orthogonalLoop=1;jettySize=auto;html=1;" parent="1" source="uq9chqA1jIwlqfnX0zTk-153" target="uq9chqA1jIwlqfnX0zTk-163" edge="1">
          <mxGeometry relative="1" as="geometry" />
        </mxCell>
        <mxCell id="uq9chqA1jIwlqfnX0zTk-152" value="Não" style="edgeLabel;html=1;align=center;verticalAlign=middle;resizable=0;points=[];" parent="uq9chqA1jIwlqfnX0zTk-151" vertex="1" connectable="0">
          <mxGeometry x="-0.201" y="-1" relative="1" as="geometry">
            <mxPoint as="offset" />
          </mxGeometry>
        </mxCell>
        <mxCell id="uq9chqA1jIwlqfnX0zTk-153" value="Deletar" style="rhombus;whiteSpace=wrap;html=1;fillColor=#f8cecc;strokeColor=#b85450;" parent="1" vertex="1">
          <mxGeometry x="2715" y="1030" width="80" height="80" as="geometry" />
        </mxCell>
        <mxCell id="uq9chqA1jIwlqfnX0zTk-154" style="edgeStyle=orthogonalEdgeStyle;rounded=0;orthogonalLoop=1;jettySize=auto;html=1;exitX=1;exitY=0.5;exitDx=0;exitDy=0;entryX=1;entryY=0.5;entryDx=0;entryDy=0;" parent="1" source="uq9chqA1jIwlqfnX0zTk-158" target="uq9chqA1jIwlqfnX0zTk-153" edge="1">
          <mxGeometry relative="1" as="geometry" />
        </mxCell>
        <mxCell id="uq9chqA1jIwlqfnX0zTk-155" value="Não" style="edgeLabel;html=1;align=center;verticalAlign=middle;resizable=0;points=[];" parent="uq9chqA1jIwlqfnX0zTk-154" vertex="1" connectable="0">
          <mxGeometry x="-0.1" relative="1" as="geometry">
            <mxPoint as="offset" />
          </mxGeometry>
        </mxCell>
        <mxCell id="uq9chqA1jIwlqfnX0zTk-156" style="edgeStyle=orthogonalEdgeStyle;rounded=0;orthogonalLoop=1;jettySize=auto;html=1;exitX=0.5;exitY=1;exitDx=0;exitDy=0;entryX=0.5;entryY=0;entryDx=0;entryDy=0;" parent="1" source="uq9chqA1jIwlqfnX0zTk-158" target="uq9chqA1jIwlqfnX0zTk-160" edge="1">
          <mxGeometry relative="1" as="geometry" />
        </mxCell>
        <mxCell id="uq9chqA1jIwlqfnX0zTk-157" value="Sim" style="edgeLabel;html=1;align=center;verticalAlign=middle;resizable=0;points=[];" parent="uq9chqA1jIwlqfnX0zTk-156" vertex="1" connectable="0">
          <mxGeometry x="-0.6" y="1" relative="1" as="geometry">
            <mxPoint as="offset" />
          </mxGeometry>
        </mxCell>
        <mxCell id="uq9chqA1jIwlqfnX0zTk-158" value="Confirmar?" style="rhombus;whiteSpace=wrap;html=1;fillColor=#f8cecc;strokeColor=#b85450;" parent="1" vertex="1">
          <mxGeometry x="2715" y="1150" width="80" height="80" as="geometry" />
        </mxCell>
        <mxCell id="uq9chqA1jIwlqfnX0zTk-159" style="edgeStyle=orthogonalEdgeStyle;rounded=0;orthogonalLoop=1;jettySize=auto;html=1;exitX=1;exitY=0.5;exitDx=0;exitDy=0;entryX=1;entryY=1;entryDx=0;entryDy=0;" parent="1" source="uq9chqA1jIwlqfnX0zTk-160" target="uq9chqA1jIwlqfnX0zTk-148" edge="1">
          <mxGeometry relative="1" as="geometry">
            <Array as="points">
              <mxPoint x="2830" y="1290" />
              <mxPoint x="2830" y="956" />
            </Array>
          </mxGeometry>
        </mxCell>
        <mxCell id="uq9chqA1jIwlqfnX0zTk-160" value="Conta apagada" style="rounded=0;whiteSpace=wrap;html=1;fillColor=#fff2cc;strokeColor=#d6b656;" parent="1" vertex="1">
          <mxGeometry x="2700" y="1270" width="110" height="40" as="geometry" />
        </mxCell>
        <mxCell id="uq9chqA1jIwlqfnX0zTk-161" value="" style="edgeStyle=orthogonalEdgeStyle;rounded=0;orthogonalLoop=1;jettySize=auto;html=1;" parent="1" source="uq9chqA1jIwlqfnX0zTk-163" target="uq9chqA1jIwlqfnX0zTk-167" edge="1">
          <mxGeometry relative="1" as="geometry" />
        </mxCell>
        <mxCell id="uq9chqA1jIwlqfnX0zTk-162" value="Sim" style="edgeLabel;html=1;align=center;verticalAlign=middle;resizable=0;points=[];" parent="uq9chqA1jIwlqfnX0zTk-161" vertex="1" connectable="0">
          <mxGeometry x="-0.6" y="-1" relative="1" as="geometry">
            <mxPoint as="offset" />
          </mxGeometry>
        </mxCell>
        <mxCell id="uq9chqA1jIwlqfnX0zTk-163" value="Atualizar" style="rhombus;whiteSpace=wrap;html=1;fillColor=#f8cecc;strokeColor=#b85450;" parent="1" vertex="1">
          <mxGeometry x="2584.94" y="1030" width="80" height="80" as="geometry" />
        </mxCell>
        <mxCell id="uq9chqA1jIwlqfnX0zTk-164" style="edgeStyle=orthogonalEdgeStyle;rounded=0;orthogonalLoop=1;jettySize=auto;html=1;exitX=0;exitY=0.5;exitDx=0;exitDy=0;entryX=0;entryY=0.5;entryDx=0;entryDy=0;" parent="1" source="uq9chqA1jIwlqfnX0zTk-167" target="uq9chqA1jIwlqfnX0zTk-163" edge="1">
          <mxGeometry relative="1" as="geometry" />
        </mxCell>
        <mxCell id="uq9chqA1jIwlqfnX0zTk-165" value="Não" style="edgeLabel;html=1;align=center;verticalAlign=middle;resizable=0;points=[];" parent="uq9chqA1jIwlqfnX0zTk-164" vertex="1" connectable="0">
          <mxGeometry x="0.025" y="-1" relative="1" as="geometry">
            <mxPoint as="offset" />
          </mxGeometry>
        </mxCell>
        <mxCell id="uq9chqA1jIwlqfnX0zTk-166" style="edgeStyle=orthogonalEdgeStyle;rounded=0;orthogonalLoop=1;jettySize=auto;html=1;exitX=0.5;exitY=1;exitDx=0;exitDy=0;entryX=0.5;entryY=0;entryDx=0;entryDy=0;" parent="1" source="uq9chqA1jIwlqfnX0zTk-167" target="uq9chqA1jIwlqfnX0zTk-169" edge="1">
          <mxGeometry relative="1" as="geometry" />
        </mxCell>
        <mxCell id="uq9chqA1jIwlqfnX0zTk-167" value="Dados Alterados&amp;nbsp;" style="rhombus;whiteSpace=wrap;html=1;fillColor=#f8cecc;strokeColor=#b85450;" parent="1" vertex="1">
          <mxGeometry x="2584.94" y="1150" width="80" height="80" as="geometry" />
        </mxCell>
        <mxCell id="uq9chqA1jIwlqfnX0zTk-168" style="edgeStyle=orthogonalEdgeStyle;rounded=0;orthogonalLoop=1;jettySize=auto;html=1;exitX=0;exitY=0.5;exitDx=0;exitDy=0;entryX=0;entryY=1;entryDx=0;entryDy=0;" parent="1" source="uq9chqA1jIwlqfnX0zTk-169" target="uq9chqA1jIwlqfnX0zTk-148" edge="1">
          <mxGeometry relative="1" as="geometry">
            <Array as="points">
              <mxPoint x="2530" y="1290" />
              <mxPoint x="2530" y="1020" />
              <mxPoint x="2733" y="1020" />
            </Array>
          </mxGeometry>
        </mxCell>
        <mxCell id="uq9chqA1jIwlqfnX0zTk-169" value="Dados Atualizados" style="rounded=0;whiteSpace=wrap;html=1;fillColor=#fff2cc;strokeColor=#d6b656;" parent="1" vertex="1">
          <mxGeometry x="2570" y="1270" width="110" height="40" as="geometry" />
        </mxCell>
        <mxCell id="uq9chqA1jIwlqfnX0zTk-170" style="edgeStyle=orthogonalEdgeStyle;rounded=0;orthogonalLoop=1;jettySize=auto;html=1;exitX=0.5;exitY=1;exitDx=0;exitDy=0;entryX=0.5;entryY=0;entryDx=0;entryDy=0;" parent="1" source="uq9chqA1jIwlqfnX0zTk-171" target="uq9chqA1jIwlqfnX0zTk-176" edge="1">
          <mxGeometry relative="1" as="geometry" />
        </mxCell>
        <mxCell id="uq9chqA1jIwlqfnX0zTk-171" value="Tela devedores" style="rounded=0;whiteSpace=wrap;html=1;" parent="1" vertex="1">
          <mxGeometry x="180" y="975" width="120" height="60" as="geometry" />
        </mxCell>
        <mxCell id="uq9chqA1jIwlqfnX0zTk-172" style="edgeStyle=orthogonalEdgeStyle;rounded=0;orthogonalLoop=1;jettySize=auto;html=1;exitX=0.5;exitY=1;exitDx=0;exitDy=0;entryX=0.5;entryY=0;entryDx=0;entryDy=0;" parent="1" source="uq9chqA1jIwlqfnX0zTk-176" target="uq9chqA1jIwlqfnX0zTk-181" edge="1">
          <mxGeometry relative="1" as="geometry" />
        </mxCell>
        <mxCell id="uq9chqA1jIwlqfnX0zTk-173" value="não" style="edgeLabel;html=1;align=center;verticalAlign=middle;resizable=0;points=[];" parent="uq9chqA1jIwlqfnX0zTk-172" vertex="1" connectable="0">
          <mxGeometry x="-0.16" relative="1" as="geometry">
            <mxPoint x="-15" y="-3" as="offset" />
          </mxGeometry>
        </mxCell>
        <mxCell id="uq9chqA1jIwlqfnX0zTk-174" style="edgeStyle=orthogonalEdgeStyle;rounded=0;orthogonalLoop=1;jettySize=auto;html=1;exitX=1;exitY=0.5;exitDx=0;exitDy=0;entryX=0;entryY=0.5;entryDx=0;entryDy=0;" parent="1" source="uq9chqA1jIwlqfnX0zTk-176" target="uq9chqA1jIwlqfnX0zTk-183" edge="1">
          <mxGeometry relative="1" as="geometry" />
        </mxCell>
        <mxCell id="uq9chqA1jIwlqfnX0zTk-175" value="sim" style="edgeLabel;html=1;align=center;verticalAlign=middle;resizable=0;points=[];" parent="uq9chqA1jIwlqfnX0zTk-174" vertex="1" connectable="0">
          <mxGeometry x="-0.1014" y="1" relative="1" as="geometry">
            <mxPoint x="-1" y="-14" as="offset" />
          </mxGeometry>
        </mxCell>
        <mxCell id="uq9chqA1jIwlqfnX0zTk-176" value="devedores" style="rhombus;whiteSpace=wrap;html=1;" parent="1" vertex="1">
          <mxGeometry x="195" y="1085" width="90" height="100" as="geometry" />
        </mxCell>
        <mxCell id="uq9chqA1jIwlqfnX0zTk-177" style="edgeStyle=orthogonalEdgeStyle;rounded=0;orthogonalLoop=1;jettySize=auto;html=1;exitX=0;exitY=0.5;exitDx=0;exitDy=0;entryX=0;entryY=0.5;entryDx=0;entryDy=0;" parent="1" source="uq9chqA1jIwlqfnX0zTk-181" target="uq9chqA1jIwlqfnX0zTk-176" edge="1">
          <mxGeometry relative="1" as="geometry" />
        </mxCell>
        <mxCell id="uq9chqA1jIwlqfnX0zTk-179" style="edgeStyle=orthogonalEdgeStyle;rounded=0;orthogonalLoop=1;jettySize=auto;html=1;exitX=1;exitY=0.5;exitDx=0;exitDy=0;entryX=0;entryY=0.5;entryDx=0;entryDy=0;" parent="1" source="uq9chqA1jIwlqfnX0zTk-181" target="uq9chqA1jIwlqfnX0zTk-187" edge="1">
          <mxGeometry relative="1" as="geometry" />
        </mxCell>
        <mxCell id="uq9chqA1jIwlqfnX0zTk-180" value="sim" style="edgeLabel;html=1;align=center;verticalAlign=middle;resizable=0;points=[];" parent="uq9chqA1jIwlqfnX0zTk-179" vertex="1" connectable="0">
          <mxGeometry x="-0.1429" y="-1" relative="1" as="geometry">
            <mxPoint x="-5" y="-16" as="offset" />
          </mxGeometry>
        </mxCell>
        <mxCell id="uq9chqA1jIwlqfnX0zTk-181" value="Apagar?" style="rhombus;whiteSpace=wrap;html=1;" parent="1" vertex="1">
          <mxGeometry x="200" y="1235" width="80" height="80" as="geometry" />
        </mxCell>
        <mxCell id="uq9chqA1jIwlqfnX0zTk-182" style="edgeStyle=orthogonalEdgeStyle;rounded=0;orthogonalLoop=1;jettySize=auto;html=1;exitX=1;exitY=0.5;exitDx=0;exitDy=0;entryX=0;entryY=0.5;entryDx=0;entryDy=0;" parent="1" source="uq9chqA1jIwlqfnX0zTk-183" target="uq9chqA1jIwlqfnX0zTk-191" edge="1">
          <mxGeometry relative="1" as="geometry" />
        </mxCell>
        <mxCell id="uq9chqA1jIwlqfnX0zTk-183" value="Adicionar de devedores" style="rounded=0;whiteSpace=wrap;html=1;" parent="1" vertex="1">
          <mxGeometry x="354" y="1105" width="120" height="60" as="geometry" />
        </mxCell>
        <mxCell id="uq9chqA1jIwlqfnX0zTk-184" style="edgeStyle=orthogonalEdgeStyle;rounded=0;orthogonalLoop=1;jettySize=auto;html=1;exitX=0.5;exitY=0;exitDx=0;exitDy=0;entryX=1;entryY=1;entryDx=0;entryDy=0;" parent="1" source="uq9chqA1jIwlqfnX0zTk-187" target="uq9chqA1jIwlqfnX0zTk-176" edge="1">
          <mxGeometry relative="1" as="geometry" />
        </mxCell>
        <mxCell id="uq9chqA1jIwlqfnX0zTk-185" value="não" style="edgeLabel;html=1;align=center;verticalAlign=middle;resizable=0;points=[];" parent="uq9chqA1jIwlqfnX0zTk-184" vertex="1" connectable="0">
          <mxGeometry x="-0.1802" relative="1" as="geometry">
            <mxPoint x="-12" y="-15" as="offset" />
          </mxGeometry>
        </mxCell>
        <mxCell id="uq9chqA1jIwlqfnX0zTk-186" style="edgeStyle=orthogonalEdgeStyle;rounded=0;orthogonalLoop=1;jettySize=auto;html=1;exitX=1;exitY=0.5;exitDx=0;exitDy=0;entryX=0;entryY=0.5;entryDx=0;entryDy=0;" parent="1" source="uq9chqA1jIwlqfnX0zTk-187" target="uq9chqA1jIwlqfnX0zTk-189" edge="1">
          <mxGeometry relative="1" as="geometry" />
        </mxCell>
        <mxCell id="uq9chqA1jIwlqfnX0zTk-187" value="confirmar" style="rhombus;whiteSpace=wrap;html=1;" parent="1" vertex="1">
          <mxGeometry x="350" y="1235" width="80" height="80" as="geometry" />
        </mxCell>
        <mxCell id="uq9chqA1jIwlqfnX0zTk-188" style="edgeStyle=orthogonalEdgeStyle;rounded=0;orthogonalLoop=1;jettySize=auto;html=1;entryX=0;entryY=0.5;entryDx=0;entryDy=0;" parent="1" source="uq9chqA1jIwlqfnX0zTk-189" target="uq9chqA1jIwlqfnX0zTk-171" edge="1">
          <mxGeometry relative="1" as="geometry">
            <Array as="points">
              <mxPoint x="590" y="1275" />
              <mxPoint x="590" y="1340" />
              <mxPoint x="120" y="1340" />
              <mxPoint x="120" y="1005" />
            </Array>
          </mxGeometry>
        </mxCell>
        <mxCell id="uq9chqA1jIwlqfnX0zTk-189" value="apagado" style="rounded=0;whiteSpace=wrap;html=1;" parent="1" vertex="1">
          <mxGeometry x="480" y="1250" width="90" height="50" as="geometry" />
        </mxCell>
        <mxCell id="2ZzVXjPrMufIAR6hpr8i-3" style="edgeStyle=orthogonalEdgeStyle;rounded=0;orthogonalLoop=1;jettySize=auto;html=1;exitX=0.5;exitY=0;exitDx=0;exitDy=0;entryX=0.5;entryY=1;entryDx=0;entryDy=0;" edge="1" parent="1" source="uq9chqA1jIwlqfnX0zTk-191" target="uq9chqA1jIwlqfnX0zTk-194">
          <mxGeometry relative="1" as="geometry" />
        </mxCell>
        <mxCell id="uq9chqA1jIwlqfnX0zTk-191" value="Adicionamento de devedores&lt;div&gt;Nome:xxx&lt;/div&gt;&lt;div&gt;Valor:xxx&lt;/div&gt;" style="shape=manualInput;whiteSpace=wrap;html=1;" parent="1" vertex="1">
          <mxGeometry x="515" y="1075" width="110" height="120" as="geometry" />
        </mxCell>
        <mxCell id="uq9chqA1jIwlqfnX0zTk-192" style="edgeStyle=orthogonalEdgeStyle;rounded=0;orthogonalLoop=1;jettySize=auto;html=1;exitX=0;exitY=0.5;exitDx=0;exitDy=0;entryX=1;entryY=0;entryDx=0;entryDy=0;" parent="1" source="uq9chqA1jIwlqfnX0zTk-194" target="uq9chqA1jIwlqfnX0zTk-176" edge="1">
          <mxGeometry relative="1" as="geometry">
            <Array as="points">
              <mxPoint x="530" y="1065" />
              <mxPoint x="263" y="1065" />
            </Array>
          </mxGeometry>
        </mxCell>
        <mxCell id="uq9chqA1jIwlqfnX0zTk-193" value="não" style="edgeLabel;html=1;align=center;verticalAlign=middle;resizable=0;points=[];" parent="uq9chqA1jIwlqfnX0zTk-192" vertex="1" connectable="0">
          <mxGeometry x="0.0497" y="2" relative="1" as="geometry">
            <mxPoint x="-14" y="-17" as="offset" />
          </mxGeometry>
        </mxCell>
        <mxCell id="uq9chqA1jIwlqfnX0zTk-194" value="Confirmar?" style="rhombus;whiteSpace=wrap;html=1;" parent="1" vertex="1">
          <mxGeometry x="530" y="945" width="80" height="80" as="geometry" />
        </mxCell>
        <mxCell id="uq9chqA1jIwlqfnX0zTk-197" value="" style="edgeStyle=orthogonalEdgeStyle;rounded=0;orthogonalLoop=1;jettySize=auto;html=1;" parent="1" source="uq9chqA1jIwlqfnX0zTk-203" target="uq9chqA1jIwlqfnX0zTk-208" edge="1">
          <mxGeometry relative="1" as="geometry" />
        </mxCell>
        <mxCell id="uq9chqA1jIwlqfnX0zTk-198" value="Não" style="edgeLabel;html=1;align=center;verticalAlign=middle;resizable=0;points=[];" parent="uq9chqA1jIwlqfnX0zTk-197" vertex="1" connectable="0">
          <mxGeometry x="-0.28" y="3" relative="1" as="geometry">
            <mxPoint as="offset" />
          </mxGeometry>
        </mxCell>
        <mxCell id="uq9chqA1jIwlqfnX0zTk-199" style="edgeStyle=orthogonalEdgeStyle;rounded=0;orthogonalLoop=1;jettySize=auto;html=1;exitX=0;exitY=1;exitDx=0;exitDy=0;entryX=1;entryY=1;entryDx=0;entryDy=0;" parent="1" source="uq9chqA1jIwlqfnX0zTk-203" target="uq9chqA1jIwlqfnX0zTk-138" edge="1">
          <mxGeometry relative="1" as="geometry">
            <Array as="points">
              <mxPoint x="2723" y="860" />
              <mxPoint x="2630" y="860" />
            </Array>
          </mxGeometry>
        </mxCell>
        <mxCell id="uq9chqA1jIwlqfnX0zTk-200" value="Não" style="edgeLabel;html=1;align=center;verticalAlign=middle;resizable=0;points=[];" parent="uq9chqA1jIwlqfnX0zTk-199" vertex="1" connectable="0">
          <mxGeometry x="-0.1119" relative="1" as="geometry">
            <mxPoint as="offset" />
          </mxGeometry>
        </mxCell>
        <mxCell id="uq9chqA1jIwlqfnX0zTk-201" value="" style="edgeStyle=orthogonalEdgeStyle;rounded=0;orthogonalLoop=1;jettySize=auto;html=1;" parent="1" source="uq9chqA1jIwlqfnX0zTk-203" target="uq9chqA1jIwlqfnX0zTk-222" edge="1">
          <mxGeometry relative="1" as="geometry" />
        </mxCell>
        <mxCell id="uq9chqA1jIwlqfnX0zTk-202" value="Sim" style="edgeLabel;html=1;align=center;verticalAlign=middle;resizable=0;points=[];" parent="uq9chqA1jIwlqfnX0zTk-201" vertex="1" connectable="0">
          <mxGeometry x="0.1" y="1" relative="1" as="geometry">
            <mxPoint as="offset" />
          </mxGeometry>
        </mxCell>
        <mxCell id="uq9chqA1jIwlqfnX0zTk-203" value="A devedores?" style="rhombus;whiteSpace=wrap;html=1;fillColor=#f8cecc;strokeColor=#b85450;" parent="1" vertex="1">
          <mxGeometry x="2700" y="760" width="90" height="100" as="geometry" />
        </mxCell>
        <mxCell id="uq9chqA1jIwlqfnX0zTk-204" style="edgeStyle=orthogonalEdgeStyle;rounded=0;orthogonalLoop=1;jettySize=auto;html=1;exitX=0;exitY=0;exitDx=0;exitDy=0;entryX=1;entryY=0.5;entryDx=0;entryDy=0;" parent="1" source="uq9chqA1jIwlqfnX0zTk-208" target="uq9chqA1jIwlqfnX0zTk-222" edge="1">
          <mxGeometry relative="1" as="geometry" />
        </mxCell>
        <mxCell id="uq9chqA1jIwlqfnX0zTk-205" value="Não" style="edgeLabel;html=1;align=center;verticalAlign=middle;resizable=0;points=[];" parent="uq9chqA1jIwlqfnX0zTk-204" vertex="1" connectable="0">
          <mxGeometry x="0.1288" y="1" relative="1" as="geometry">
            <mxPoint x="1" as="offset" />
          </mxGeometry>
        </mxCell>
        <mxCell id="uq9chqA1jIwlqfnX0zTk-206" style="edgeStyle=orthogonalEdgeStyle;rounded=0;orthogonalLoop=1;jettySize=auto;html=1;entryX=0;entryY=0.5;entryDx=0;entryDy=0;" parent="1" source="uq9chqA1jIwlqfnX0zTk-208" target="uq9chqA1jIwlqfnX0zTk-230" edge="1">
          <mxGeometry relative="1" as="geometry" />
        </mxCell>
        <mxCell id="uq9chqA1jIwlqfnX0zTk-207" value="Sim" style="edgeLabel;html=1;align=center;verticalAlign=middle;resizable=0;points=[];" parent="uq9chqA1jIwlqfnX0zTk-206" vertex="1" connectable="0">
          <mxGeometry x="0.28" y="3" relative="1" as="geometry">
            <mxPoint as="offset" />
          </mxGeometry>
        </mxCell>
        <mxCell id="uq9chqA1jIwlqfnX0zTk-208" value="Adicionar" style="rhombus;whiteSpace=wrap;html=1;fillColor=#f8cecc;strokeColor=#b85450;" parent="1" vertex="1">
          <mxGeometry x="2840" y="770" width="70" height="80" as="geometry" />
        </mxCell>
        <mxCell id="uq9chqA1jIwlqfnX0zTk-209" style="edgeStyle=orthogonalEdgeStyle;rounded=0;orthogonalLoop=1;jettySize=auto;html=1;exitX=0.5;exitY=0;exitDx=0;exitDy=0;entryX=0.5;entryY=1;entryDx=0;entryDy=0;" parent="1" source="uq9chqA1jIwlqfnX0zTk-210" target="uq9chqA1jIwlqfnX0zTk-215" edge="1">
          <mxGeometry relative="1" as="geometry" />
        </mxCell>
        <mxCell id="uq9chqA1jIwlqfnX0zTk-210" value="&lt;div&gt;&lt;br&gt;&lt;/div&gt;&lt;div&gt;&lt;br&gt;&lt;/div&gt;Adicionamento de devedores&lt;div&gt;Nome:xxx&lt;/div&gt;&lt;div&gt;Valor:xxx&lt;/div&gt;" style="shape=manualInput;whiteSpace=wrap;html=1;fillColor=#e1d5e7;strokeColor=#9673a6;" parent="1" vertex="1">
          <mxGeometry x="3100" y="750" width="110" height="100" as="geometry" />
        </mxCell>
        <mxCell id="uq9chqA1jIwlqfnX0zTk-211" style="edgeStyle=orthogonalEdgeStyle;rounded=0;orthogonalLoop=1;jettySize=auto;html=1;entryX=0.5;entryY=1;entryDx=0;entryDy=0;" parent="1" source="uq9chqA1jIwlqfnX0zTk-215" target="uq9chqA1jIwlqfnX0zTk-217" edge="1">
          <mxGeometry relative="1" as="geometry" />
        </mxCell>
        <mxCell id="uq9chqA1jIwlqfnX0zTk-212" value="Sim" style="edgeLabel;html=1;align=center;verticalAlign=middle;resizable=0;points=[];" parent="uq9chqA1jIwlqfnX0zTk-211" vertex="1" connectable="0">
          <mxGeometry x="0.0204" y="2" relative="1" as="geometry">
            <mxPoint as="offset" />
          </mxGeometry>
        </mxCell>
        <mxCell id="uq9chqA1jIwlqfnX0zTk-213" style="edgeStyle=orthogonalEdgeStyle;rounded=0;orthogonalLoop=1;jettySize=auto;html=1;entryX=0.5;entryY=1;entryDx=0;entryDy=0;" parent="1" source="uq9chqA1jIwlqfnX0zTk-215" target="uq9chqA1jIwlqfnX0zTk-230" edge="1">
          <mxGeometry relative="1" as="geometry">
            <Array as="points">
              <mxPoint x="3270" y="641" />
              <mxPoint x="3270" y="870" />
              <mxPoint x="3000" y="870" />
            </Array>
          </mxGeometry>
        </mxCell>
        <mxCell id="uq9chqA1jIwlqfnX0zTk-214" value="Não" style="edgeLabel;html=1;align=center;verticalAlign=middle;resizable=0;points=[];" parent="uq9chqA1jIwlqfnX0zTk-213" vertex="1" connectable="0">
          <mxGeometry x="-0.2444" y="1" relative="1" as="geometry">
            <mxPoint as="offset" />
          </mxGeometry>
        </mxCell>
        <mxCell id="uq9chqA1jIwlqfnX0zTk-215" value="Confirmar?" style="rhombus;whiteSpace=wrap;html=1;fillColor=#f8cecc;strokeColor=#b85450;" parent="1" vertex="1">
          <mxGeometry x="3115" y="601.25" width="80" height="80" as="geometry" />
        </mxCell>
        <mxCell id="uq9chqA1jIwlqfnX0zTk-216" style="edgeStyle=orthogonalEdgeStyle;rounded=0;orthogonalLoop=1;jettySize=auto;html=1;entryX=1;entryY=0;entryDx=0;entryDy=0;" parent="1" source="uq9chqA1jIwlqfnX0zTk-217" target="uq9chqA1jIwlqfnX0zTk-208" edge="1">
          <mxGeometry relative="1" as="geometry">
            <Array as="points">
              <mxPoint x="3030" y="519" />
              <mxPoint x="3030" y="720" />
              <mxPoint x="2893" y="720" />
            </Array>
          </mxGeometry>
        </mxCell>
        <mxCell id="uq9chqA1jIwlqfnX0zTk-217" value="devedores adicionados" style="rounded=0;whiteSpace=wrap;html=1;fillColor=#fff2cc;strokeColor=#d6b656;" parent="1" vertex="1">
          <mxGeometry x="3107.5" y="497.5" width="95" height="42.5" as="geometry" />
        </mxCell>
        <mxCell id="uq9chqA1jIwlqfnX0zTk-218" style="edgeStyle=orthogonalEdgeStyle;rounded=0;orthogonalLoop=1;jettySize=auto;html=1;exitX=0;exitY=0.5;exitDx=0;exitDy=0;entryX=0.38;entryY=0.1;entryDx=0;entryDy=0;entryPerimeter=0;" parent="1" source="uq9chqA1jIwlqfnX0zTk-222" target="uq9chqA1jIwlqfnX0zTk-203" edge="1">
          <mxGeometry relative="1" as="geometry">
            <Array as="points">
              <mxPoint x="2685" y="680" />
              <mxPoint x="2685" y="740" />
              <mxPoint x="2730" y="740" />
              <mxPoint x="2730" y="770" />
            </Array>
          </mxGeometry>
        </mxCell>
        <mxCell id="uq9chqA1jIwlqfnX0zTk-219" value="Não" style="edgeLabel;html=1;align=center;verticalAlign=middle;resizable=0;points=[];" parent="uq9chqA1jIwlqfnX0zTk-218" vertex="1" connectable="0">
          <mxGeometry x="-0.2985" y="-2" relative="1" as="geometry">
            <mxPoint as="offset" />
          </mxGeometry>
        </mxCell>
        <mxCell id="uq9chqA1jIwlqfnX0zTk-220" value="" style="edgeStyle=orthogonalEdgeStyle;rounded=0;orthogonalLoop=1;jettySize=auto;html=1;" parent="1" source="uq9chqA1jIwlqfnX0zTk-222" target="uq9chqA1jIwlqfnX0zTk-227" edge="1">
          <mxGeometry relative="1" as="geometry" />
        </mxCell>
        <mxCell id="uq9chqA1jIwlqfnX0zTk-221" value="Sim" style="edgeLabel;html=1;align=center;verticalAlign=middle;resizable=0;points=[];" parent="uq9chqA1jIwlqfnX0zTk-220" vertex="1" connectable="0">
          <mxGeometry x="0.05" y="-4" relative="1" as="geometry">
            <mxPoint as="offset" />
          </mxGeometry>
        </mxCell>
        <mxCell id="uq9chqA1jIwlqfnX0zTk-222" value="Apagar?" style="rhombus;whiteSpace=wrap;html=1;fillColor=#f8cecc;strokeColor=#b85450;" parent="1" vertex="1">
          <mxGeometry x="2705" y="640" width="80" height="80" as="geometry" />
        </mxCell>
        <mxCell id="uq9chqA1jIwlqfnX0zTk-223" value="" style="edgeStyle=orthogonalEdgeStyle;rounded=0;orthogonalLoop=1;jettySize=auto;html=1;" parent="1" source="uq9chqA1jIwlqfnX0zTk-227" target="uq9chqA1jIwlqfnX0zTk-229" edge="1">
          <mxGeometry relative="1" as="geometry" />
        </mxCell>
        <mxCell id="uq9chqA1jIwlqfnX0zTk-224" value="Sim" style="edgeLabel;html=1;align=center;verticalAlign=middle;resizable=0;points=[];" parent="uq9chqA1jIwlqfnX0zTk-223" vertex="1" connectable="0">
          <mxGeometry x="-0.15" y="-3" relative="1" as="geometry">
            <mxPoint as="offset" />
          </mxGeometry>
        </mxCell>
        <mxCell id="uq9chqA1jIwlqfnX0zTk-225" style="edgeStyle=orthogonalEdgeStyle;rounded=0;orthogonalLoop=1;jettySize=auto;html=1;exitX=1;exitY=0.5;exitDx=0;exitDy=0;entryX=1;entryY=0;entryDx=0;entryDy=0;" parent="1" source="uq9chqA1jIwlqfnX0zTk-227" target="uq9chqA1jIwlqfnX0zTk-222" edge="1">
          <mxGeometry relative="1" as="geometry">
            <Array as="points">
              <mxPoint x="2805" y="560" />
              <mxPoint x="2805" y="660" />
            </Array>
          </mxGeometry>
        </mxCell>
        <mxCell id="uq9chqA1jIwlqfnX0zTk-226" value="Não" style="edgeLabel;html=1;align=center;verticalAlign=middle;resizable=0;points=[];" parent="uq9chqA1jIwlqfnX0zTk-225" vertex="1" connectable="0">
          <mxGeometry x="-0.0375" relative="1" as="geometry">
            <mxPoint as="offset" />
          </mxGeometry>
        </mxCell>
        <mxCell id="uq9chqA1jIwlqfnX0zTk-227" value="Confirmar?" style="rhombus;whiteSpace=wrap;html=1;fillColor=#f8cecc;strokeColor=#b85450;" parent="1" vertex="1">
          <mxGeometry x="2705" y="520" width="80" height="80" as="geometry" />
        </mxCell>
        <mxCell id="uq9chqA1jIwlqfnX0zTk-228" style="edgeStyle=orthogonalEdgeStyle;rounded=0;orthogonalLoop=1;jettySize=auto;html=1;entryX=1;entryY=0;entryDx=0;entryDy=0;" parent="1" source="uq9chqA1jIwlqfnX0zTk-229" target="uq9chqA1jIwlqfnX0zTk-138" edge="1">
          <mxGeometry relative="1" as="geometry" />
        </mxCell>
        <mxCell id="uq9chqA1jIwlqfnX0zTk-229" value="apagado" style="rounded=0;whiteSpace=wrap;html=1;fillColor=#fff2cc;strokeColor=#d6b656;" parent="1" vertex="1">
          <mxGeometry x="2700" y="430" width="90" height="50" as="geometry" />
        </mxCell>
        <mxCell id="uq9chqA1jIwlqfnX0zTk-230" value="Tela de cadastro" style="rounded=0;whiteSpace=wrap;html=1;fillColor=#fff2cc;strokeColor=#d6b656;" parent="1" vertex="1">
          <mxGeometry x="2940" y="795" width="120" height="30" as="geometry" />
        </mxCell>
        <mxCell id="uq9chqA1jIwlqfnX0zTk-231" style="edgeStyle=orthogonalEdgeStyle;rounded=0;orthogonalLoop=1;jettySize=auto;html=1;entryX=0.018;entryY=0.6;entryDx=0;entryDy=0;entryPerimeter=0;" parent="1" source="uq9chqA1jIwlqfnX0zTk-230" target="uq9chqA1jIwlqfnX0zTk-210" edge="1">
          <mxGeometry relative="1" as="geometry" />
        </mxCell>
        <mxCell id="uq9chqA1jIwlqfnX0zTk-232" style="edgeStyle=orthogonalEdgeStyle;rounded=0;orthogonalLoop=1;jettySize=auto;html=1;entryX=0;entryY=0.5;entryDx=0;entryDy=0;" parent="1" source="uq9chqA1jIwlqfnX0zTk-234" target="uq9chqA1jIwlqfnX0zTk-235" edge="1">
          <mxGeometry relative="1" as="geometry" />
        </mxCell>
        <mxCell id="uq9chqA1jIwlqfnX0zTk-233" value="Sim" style="edgeLabel;html=1;align=center;verticalAlign=middle;resizable=0;points=[];" parent="uq9chqA1jIwlqfnX0zTk-232" vertex="1" connectable="0">
          <mxGeometry x="0.24" y="2" relative="1" as="geometry">
            <mxPoint as="offset" />
          </mxGeometry>
        </mxCell>
        <mxCell id="uq9chqA1jIwlqfnX0zTk-234" value="Adicionar" style="rhombus;whiteSpace=wrap;html=1;fillColor=#f8cecc;strokeColor=#b85450;" parent="1" vertex="1">
          <mxGeometry x="2860" y="895" width="70" height="80" as="geometry" />
        </mxCell>
        <mxCell id="uq9chqA1jIwlqfnX0zTk-235" value="Tela de cadastro" style="rounded=0;whiteSpace=wrap;html=1;fillColor=#fff2cc;strokeColor=#d6b656;" parent="1" vertex="1">
          <mxGeometry x="2960" y="920" width="120" height="30" as="geometry" />
        </mxCell>
        <mxCell id="uq9chqA1jIwlqfnX0zTk-236" style="edgeStyle=orthogonalEdgeStyle;rounded=0;orthogonalLoop=1;jettySize=auto;html=1;entryX=0.5;entryY=0;entryDx=0;entryDy=0;" parent="1" source="uq9chqA1jIwlqfnX0zTk-237" target="uq9chqA1jIwlqfnX0zTk-243" edge="1">
          <mxGeometry relative="1" as="geometry" />
        </mxCell>
        <mxCell id="uq9chqA1jIwlqfnX0zTk-237" value="&lt;div&gt;&lt;br&gt;&lt;/div&gt;&lt;div&gt;&lt;br&gt;&lt;/div&gt;Adicionamento de conta&lt;div&gt;Nome:xxx&lt;/div&gt;&lt;div&gt;Valor:xxx&lt;/div&gt;&lt;div&gt;Data de validade:xxx&lt;/div&gt;" style="shape=manualInput;whiteSpace=wrap;html=1;fillColor=#e1d5e7;strokeColor=#9673a6;" parent="1" vertex="1">
          <mxGeometry x="3140" y="895" width="120" height="120" as="geometry" />
        </mxCell>
        <mxCell id="uq9chqA1jIwlqfnX0zTk-238" style="edgeStyle=orthogonalEdgeStyle;rounded=0;orthogonalLoop=1;jettySize=auto;html=1;entryX=0.017;entryY=0.333;entryDx=0;entryDy=0;entryPerimeter=0;" parent="1" source="uq9chqA1jIwlqfnX0zTk-235" target="uq9chqA1jIwlqfnX0zTk-237" edge="1">
          <mxGeometry relative="1" as="geometry" />
        </mxCell>
        <mxCell id="uq9chqA1jIwlqfnX0zTk-239" style="edgeStyle=orthogonalEdgeStyle;rounded=0;orthogonalLoop=1;jettySize=auto;html=1;entryX=1;entryY=1;entryDx=0;entryDy=0;" parent="1" source="uq9chqA1jIwlqfnX0zTk-243" target="uq9chqA1jIwlqfnX0zTk-235" edge="1">
          <mxGeometry relative="1" as="geometry" />
        </mxCell>
        <mxCell id="uq9chqA1jIwlqfnX0zTk-240" value="Não" style="edgeLabel;html=1;align=center;verticalAlign=middle;resizable=0;points=[];" parent="uq9chqA1jIwlqfnX0zTk-239" vertex="1" connectable="0">
          <mxGeometry x="0.1304" y="-4" relative="1" as="geometry">
            <mxPoint as="offset" />
          </mxGeometry>
        </mxCell>
        <mxCell id="uq9chqA1jIwlqfnX0zTk-241" style="edgeStyle=orthogonalEdgeStyle;rounded=0;orthogonalLoop=1;jettySize=auto;html=1;entryX=0.5;entryY=0;entryDx=0;entryDy=0;" parent="1" source="uq9chqA1jIwlqfnX0zTk-243" target="uq9chqA1jIwlqfnX0zTk-245" edge="1">
          <mxGeometry relative="1" as="geometry" />
        </mxCell>
        <mxCell id="uq9chqA1jIwlqfnX0zTk-242" value="Sim" style="edgeLabel;html=1;align=center;verticalAlign=middle;resizable=0;points=[];" parent="uq9chqA1jIwlqfnX0zTk-241" vertex="1" connectable="0">
          <mxGeometry x="-0.4222" y="1" relative="1" as="geometry">
            <mxPoint as="offset" />
          </mxGeometry>
        </mxCell>
        <mxCell id="uq9chqA1jIwlqfnX0zTk-243" value="Confirmar?" style="rhombus;whiteSpace=wrap;html=1;fillColor=#f8cecc;strokeColor=#b85450;" parent="1" vertex="1">
          <mxGeometry x="3160" y="1060" width="80" height="80" as="geometry" />
        </mxCell>
        <mxCell id="uq9chqA1jIwlqfnX0zTk-244" style="edgeStyle=orthogonalEdgeStyle;rounded=0;orthogonalLoop=1;jettySize=auto;html=1;entryX=1;entryY=1;entryDx=0;entryDy=0;" parent="1" source="uq9chqA1jIwlqfnX0zTk-245" target="uq9chqA1jIwlqfnX0zTk-234" edge="1">
          <mxGeometry relative="1" as="geometry" />
        </mxCell>
        <mxCell id="uq9chqA1jIwlqfnX0zTk-245" value="Conta Adicionada" style="rounded=0;whiteSpace=wrap;html=1;fillColor=#fff2cc;strokeColor=#d6b656;" parent="1" vertex="1">
          <mxGeometry x="3145" y="1175" width="110" height="40" as="geometry" />
        </mxCell>
        <mxCell id="WmbxqslVKY_WEtifSj2N-7" style="edgeStyle=orthogonalEdgeStyle;rounded=0;orthogonalLoop=1;jettySize=auto;html=1;exitX=0.5;exitY=1;exitDx=0;exitDy=0;entryX=0.573;entryY=0.992;entryDx=0;entryDy=0;entryPerimeter=0;" parent="1" source="uq9chqA1jIwlqfnX0zTk-45" target="uq9chqA1jIwlqfnX0zTk-49" edge="1">
          <mxGeometry relative="1" as="geometry" />
        </mxCell>
        <mxCell id="WmbxqslVKY_WEtifSj2N-8" value="sim" style="text;html=1;align=center;verticalAlign=middle;resizable=0;points=[];autosize=1;strokeColor=none;fillColor=none;" parent="1" vertex="1">
          <mxGeometry x="200" y="680" width="40" height="30" as="geometry" />
        </mxCell>
        <mxCell id="WmbxqslVKY_WEtifSj2N-10" style="edgeStyle=orthogonalEdgeStyle;rounded=0;orthogonalLoop=1;jettySize=auto;html=1;entryX=0.5;entryY=0;entryDx=0;entryDy=0;" parent="1" source="WmbxqslVKY_WEtifSj2N-11" target="WmbxqslVKY_WEtifSj2N-16" edge="1">
          <mxGeometry relative="1" as="geometry" />
        </mxCell>
        <mxCell id="WmbxqslVKY_WEtifSj2N-11" value="&lt;p style=&quot;line-height: 120%;&quot;&gt;&lt;font style=&quot;font-size: 24px;&quot;&gt;Inicio&lt;/font&gt;&lt;/p&gt;" style="ellipse;whiteSpace=wrap;html=1;" parent="1" vertex="1">
          <mxGeometry x="100" y="-230" width="160" height="80" as="geometry" />
        </mxCell>
        <mxCell id="WmbxqslVKY_WEtifSj2N-12" style="edgeStyle=orthogonalEdgeStyle;rounded=0;orthogonalLoop=1;jettySize=auto;html=1;entryX=0;entryY=0.5;entryDx=0;entryDy=0;" parent="1" source="WmbxqslVKY_WEtifSj2N-16" target="WmbxqslVKY_WEtifSj2N-18" edge="1">
          <mxGeometry relative="1" as="geometry" />
        </mxCell>
        <mxCell id="WmbxqslVKY_WEtifSj2N-14" style="edgeStyle=orthogonalEdgeStyle;rounded=0;orthogonalLoop=1;jettySize=auto;html=1;exitX=0.5;exitY=1;exitDx=0;exitDy=0;" parent="1" source="WmbxqslVKY_WEtifSj2N-16" target="WmbxqslVKY_WEtifSj2N-48" edge="1">
          <mxGeometry relative="1" as="geometry" />
        </mxCell>
        <mxCell id="WmbxqslVKY_WEtifSj2N-16" value="Tem login?" style="rhombus;whiteSpace=wrap;html=1;" parent="1" vertex="1">
          <mxGeometry x="135" y="-110" width="90" height="90" as="geometry" />
        </mxCell>
        <mxCell id="WmbxqslVKY_WEtifSj2N-17" style="edgeStyle=orthogonalEdgeStyle;rounded=0;orthogonalLoop=1;jettySize=auto;html=1;exitX=1;exitY=0.5;exitDx=0;exitDy=0;entryX=0;entryY=0.5;entryDx=0;entryDy=0;" parent="1" source="WmbxqslVKY_WEtifSj2N-18" target="WmbxqslVKY_WEtifSj2N-23" edge="1">
          <mxGeometry relative="1" as="geometry" />
        </mxCell>
        <mxCell id="WmbxqslVKY_WEtifSj2N-18" value="Buscar login" style="rounded=0;whiteSpace=wrap;html=1;" parent="1" vertex="1">
          <mxGeometry x="280" y="-85" width="100" height="40" as="geometry" />
        </mxCell>
        <mxCell id="WmbxqslVKY_WEtifSj2N-19" style="edgeStyle=orthogonalEdgeStyle;rounded=0;orthogonalLoop=1;jettySize=auto;html=1;exitX=0.5;exitY=1;exitDx=0;exitDy=0;entryX=0.5;entryY=1;entryDx=0;entryDy=0;" parent="1" source="WmbxqslVKY_WEtifSj2N-23" target="WmbxqslVKY_WEtifSj2N-18" edge="1">
          <mxGeometry relative="1" as="geometry" />
        </mxCell>
        <mxCell id="WmbxqslVKY_WEtifSj2N-20" value="Não" style="edgeLabel;html=1;align=center;verticalAlign=middle;resizable=0;points=[];" parent="WmbxqslVKY_WEtifSj2N-19" vertex="1" connectable="0">
          <mxGeometry x="-0.1822" y="-3" relative="1" as="geometry">
            <mxPoint as="offset" />
          </mxGeometry>
        </mxCell>
        <mxCell id="WmbxqslVKY_WEtifSj2N-21" style="edgeStyle=orthogonalEdgeStyle;rounded=0;orthogonalLoop=1;jettySize=auto;html=1;exitX=1;exitY=0.5;exitDx=0;exitDy=0;entryX=0;entryY=0.5;entryDx=0;entryDy=0;" parent="1" source="WmbxqslVKY_WEtifSj2N-23" target="WmbxqslVKY_WEtifSj2N-28" edge="1">
          <mxGeometry relative="1" as="geometry" />
        </mxCell>
        <mxCell id="WmbxqslVKY_WEtifSj2N-22" value="Sim" style="edgeLabel;html=1;align=center;verticalAlign=middle;resizable=0;points=[];" parent="WmbxqslVKY_WEtifSj2N-21" vertex="1" connectable="0">
          <mxGeometry x="0.0867" relative="1" as="geometry">
            <mxPoint as="offset" />
          </mxGeometry>
        </mxCell>
        <mxCell id="WmbxqslVKY_WEtifSj2N-23" value="Login encontrado" style="rhombus;whiteSpace=wrap;html=1;" parent="1" vertex="1">
          <mxGeometry x="420" y="-110" width="90" height="90" as="geometry" />
        </mxCell>
        <mxCell id="WmbxqslVKY_WEtifSj2N-24" style="edgeStyle=orthogonalEdgeStyle;rounded=0;orthogonalLoop=1;jettySize=auto;html=1;exitX=0.5;exitY=1;exitDx=0;exitDy=0;entryX=0.5;entryY=0;entryDx=0;entryDy=0;" parent="1" source="WmbxqslVKY_WEtifSj2N-28" target="WmbxqslVKY_WEtifSj2N-33" edge="1">
          <mxGeometry relative="1" as="geometry" />
        </mxCell>
        <mxCell id="WmbxqslVKY_WEtifSj2N-25" value="Sim" style="edgeLabel;html=1;align=center;verticalAlign=middle;resizable=0;points=[];" parent="WmbxqslVKY_WEtifSj2N-24" vertex="1" connectable="0">
          <mxGeometry x="-0.379" y="-1" relative="1" as="geometry">
            <mxPoint as="offset" />
          </mxGeometry>
        </mxCell>
        <mxCell id="WmbxqslVKY_WEtifSj2N-26" style="edgeStyle=orthogonalEdgeStyle;rounded=0;orthogonalLoop=1;jettySize=auto;html=1;exitX=1;exitY=0.5;exitDx=0;exitDy=0;entryX=0;entryY=0.5;entryDx=0;entryDy=0;" parent="1" source="WmbxqslVKY_WEtifSj2N-28" target="WmbxqslVKY_WEtifSj2N-40" edge="1">
          <mxGeometry relative="1" as="geometry" />
        </mxCell>
        <mxCell id="WmbxqslVKY_WEtifSj2N-27" value="Não" style="edgeLabel;html=1;align=center;verticalAlign=middle;resizable=0;points=[];" parent="WmbxqslVKY_WEtifSj2N-26" vertex="1" connectable="0">
          <mxGeometry x="-0.2212" y="3" relative="1" as="geometry">
            <mxPoint as="offset" />
          </mxGeometry>
        </mxCell>
        <mxCell id="WmbxqslVKY_WEtifSj2N-28" value="Apagar ?" style="rhombus;whiteSpace=wrap;html=1;" parent="1" vertex="1">
          <mxGeometry x="570" y="-110" width="90" height="90" as="geometry" />
        </mxCell>
        <mxCell id="WmbxqslVKY_WEtifSj2N-29" style="edgeStyle=orthogonalEdgeStyle;rounded=0;orthogonalLoop=1;jettySize=auto;html=1;exitX=0.5;exitY=1;exitDx=0;exitDy=0;entryX=0.5;entryY=0;entryDx=0;entryDy=0;" parent="1" source="WmbxqslVKY_WEtifSj2N-33" target="WmbxqslVKY_WEtifSj2N-35" edge="1">
          <mxGeometry relative="1" as="geometry" />
        </mxCell>
        <mxCell id="WmbxqslVKY_WEtifSj2N-30" value="Sim" style="edgeLabel;html=1;align=center;verticalAlign=middle;resizable=0;points=[];" parent="WmbxqslVKY_WEtifSj2N-29" vertex="1" connectable="0">
          <mxGeometry x="-0.4247" y="-1" relative="1" as="geometry">
            <mxPoint x="-14" y="17" as="offset" />
          </mxGeometry>
        </mxCell>
        <mxCell id="WmbxqslVKY_WEtifSj2N-31" style="edgeStyle=orthogonalEdgeStyle;rounded=0;orthogonalLoop=1;jettySize=auto;html=1;entryX=1;entryY=1;entryDx=0;entryDy=0;" parent="1" source="WmbxqslVKY_WEtifSj2N-33" target="WmbxqslVKY_WEtifSj2N-23" edge="1">
          <mxGeometry relative="1" as="geometry" />
        </mxCell>
        <mxCell id="WmbxqslVKY_WEtifSj2N-32" value="Não" style="edgeLabel;html=1;align=center;verticalAlign=middle;resizable=0;points=[];" parent="WmbxqslVKY_WEtifSj2N-31" vertex="1" connectable="0">
          <mxGeometry x="-0.3853" y="2" relative="1" as="geometry">
            <mxPoint as="offset" />
          </mxGeometry>
        </mxCell>
        <mxCell id="WmbxqslVKY_WEtifSj2N-33" value="Confirmação ?" style="rhombus;whiteSpace=wrap;html=1;" parent="1" vertex="1">
          <mxGeometry x="570" y="20" width="90" height="90" as="geometry" />
        </mxCell>
        <mxCell id="WmbxqslVKY_WEtifSj2N-34" style="edgeStyle=orthogonalEdgeStyle;rounded=0;orthogonalLoop=1;jettySize=auto;html=1;entryX=0;entryY=0.5;entryDx=0;entryDy=0;" parent="1" source="WmbxqslVKY_WEtifSj2N-35" target="WmbxqslVKY_WEtifSj2N-16" edge="1">
          <mxGeometry relative="1" as="geometry" />
        </mxCell>
        <mxCell id="WmbxqslVKY_WEtifSj2N-35" value="Login apagado" style="rounded=0;whiteSpace=wrap;html=1;" parent="1" vertex="1">
          <mxGeometry x="560" y="230" width="110" height="40" as="geometry" />
        </mxCell>
        <mxCell id="WmbxqslVKY_WEtifSj2N-36" style="edgeStyle=orthogonalEdgeStyle;rounded=0;orthogonalLoop=1;jettySize=auto;html=1;entryX=0.5;entryY=0;entryDx=0;entryDy=0;" parent="1" source="WmbxqslVKY_WEtifSj2N-40" target="WmbxqslVKY_WEtifSj2N-45" edge="1">
          <mxGeometry relative="1" as="geometry" />
        </mxCell>
        <mxCell id="WmbxqslVKY_WEtifSj2N-37" value="Sim" style="edgeLabel;html=1;align=center;verticalAlign=middle;resizable=0;points=[];" parent="WmbxqslVKY_WEtifSj2N-36" vertex="1" connectable="0">
          <mxGeometry x="-0.329" y="-1" relative="1" as="geometry">
            <mxPoint as="offset" />
          </mxGeometry>
        </mxCell>
        <mxCell id="WmbxqslVKY_WEtifSj2N-38" style="edgeStyle=orthogonalEdgeStyle;rounded=0;orthogonalLoop=1;jettySize=auto;html=1;exitX=0.5;exitY=0;exitDx=0;exitDy=0;entryX=0.75;entryY=0;entryDx=0;entryDy=0;" parent="1" source="WmbxqslVKY_WEtifSj2N-40" target="WmbxqslVKY_WEtifSj2N-18" edge="1">
          <mxGeometry relative="1" as="geometry" />
        </mxCell>
        <mxCell id="WmbxqslVKY_WEtifSj2N-39" value="Não" style="edgeLabel;html=1;align=center;verticalAlign=middle;resizable=0;points=[];" parent="WmbxqslVKY_WEtifSj2N-38" vertex="1" connectable="0">
          <mxGeometry x="-0.5344" y="-1" relative="1" as="geometry">
            <mxPoint as="offset" />
          </mxGeometry>
        </mxCell>
        <mxCell id="WmbxqslVKY_WEtifSj2N-40" value="Atualizar" style="rhombus;whiteSpace=wrap;html=1;" parent="1" vertex="1">
          <mxGeometry x="720" y="-105" width="80" height="80" as="geometry" />
        </mxCell>
        <mxCell id="WmbxqslVKY_WEtifSj2N-41" style="edgeStyle=orthogonalEdgeStyle;rounded=0;orthogonalLoop=1;jettySize=auto;html=1;exitX=1;exitY=0.5;exitDx=0;exitDy=0;entryX=1;entryY=0.5;entryDx=0;entryDy=0;" parent="1" source="WmbxqslVKY_WEtifSj2N-45" target="WmbxqslVKY_WEtifSj2N-40" edge="1">
          <mxGeometry relative="1" as="geometry" />
        </mxCell>
        <mxCell id="WmbxqslVKY_WEtifSj2N-42" value="Não" style="edgeLabel;html=1;align=center;verticalAlign=middle;resizable=0;points=[];" parent="WmbxqslVKY_WEtifSj2N-41" vertex="1" connectable="0">
          <mxGeometry x="0.263" y="-2" relative="1" as="geometry">
            <mxPoint as="offset" />
          </mxGeometry>
        </mxCell>
        <mxCell id="WmbxqslVKY_WEtifSj2N-43" style="edgeStyle=orthogonalEdgeStyle;rounded=0;orthogonalLoop=1;jettySize=auto;html=1;exitX=0.5;exitY=1;exitDx=0;exitDy=0;entryX=0.5;entryY=0;entryDx=0;entryDy=0;" parent="1" source="WmbxqslVKY_WEtifSj2N-45" target="WmbxqslVKY_WEtifSj2N-46" edge="1">
          <mxGeometry relative="1" as="geometry" />
        </mxCell>
        <mxCell id="WmbxqslVKY_WEtifSj2N-44" value="Sim" style="edgeLabel;html=1;align=center;verticalAlign=middle;resizable=0;points=[];" parent="WmbxqslVKY_WEtifSj2N-43" vertex="1" connectable="0">
          <mxGeometry x="-0.1749" y="2" relative="1" as="geometry">
            <mxPoint as="offset" />
          </mxGeometry>
        </mxCell>
        <mxCell id="WmbxqslVKY_WEtifSj2N-45" value="Dados Válidos" style="rhombus;whiteSpace=wrap;html=1;" parent="1" vertex="1">
          <mxGeometry x="725" y="27.5" width="70" height="75" as="geometry" />
        </mxCell>
        <mxCell id="WmbxqslVKY_WEtifSj2N-46" value="Cadastro Atualizado" style="rounded=0;whiteSpace=wrap;html=1;" parent="1" vertex="1">
          <mxGeometry x="705" y="160" width="110" height="40" as="geometry" />
        </mxCell>
        <mxCell id="WmbxqslVKY_WEtifSj2N-64" style="edgeStyle=orthogonalEdgeStyle;rounded=0;orthogonalLoop=1;jettySize=auto;html=1;exitX=0.5;exitY=1;exitDx=0;exitDy=0;entryX=0.5;entryY=0;entryDx=0;entryDy=0;" parent="1" source="WmbxqslVKY_WEtifSj2N-48" target="WmbxqslVKY_WEtifSj2N-53" edge="1">
          <mxGeometry relative="1" as="geometry" />
        </mxCell>
        <mxCell id="WmbxqslVKY_WEtifSj2N-48" value="voltar tela de cadastro" style="rounded=0;whiteSpace=wrap;html=1;" parent="1" vertex="1">
          <mxGeometry x="117.5" y="40" width="125" height="30" as="geometry" />
        </mxCell>
        <mxCell id="WmbxqslVKY_WEtifSj2N-66" style="edgeStyle=orthogonalEdgeStyle;rounded=0;orthogonalLoop=1;jettySize=auto;html=1;exitX=0.5;exitY=1;exitDx=0;exitDy=0;entryX=0.5;entryY=0;entryDx=0;entryDy=0;" parent="1" source="WmbxqslVKY_WEtifSj2N-53" target="WmbxqslVKY_WEtifSj2N-55" edge="1">
          <mxGeometry relative="1" as="geometry" />
        </mxCell>
        <mxCell id="WmbxqslVKY_WEtifSj2N-53" value="cadastrar" style="rounded=0;whiteSpace=wrap;html=1;" parent="1" vertex="1">
          <mxGeometry x="125" y="118.75" width="110" height="30" as="geometry" />
        </mxCell>
        <mxCell id="WmbxqslVKY_WEtifSj2N-67" style="edgeStyle=orthogonalEdgeStyle;rounded=0;orthogonalLoop=1;jettySize=auto;html=1;exitX=1;exitY=0.5;exitDx=0;exitDy=0;entryX=0.25;entryY=1;entryDx=0;entryDy=0;" parent="1" source="WmbxqslVKY_WEtifSj2N-55" target="WmbxqslVKY_WEtifSj2N-18" edge="1">
          <mxGeometry relative="1" as="geometry" />
        </mxCell>
        <mxCell id="WmbxqslVKY_WEtifSj2N-55" value="Cadastro Realizado" style="rounded=0;whiteSpace=wrap;html=1;" parent="1" vertex="1">
          <mxGeometry x="125" y="190" width="110" height="32.5" as="geometry" />
        </mxCell>
        <mxCell id="WmbxqslVKY_WEtifSj2N-58" value="não" style="text;html=1;align=center;verticalAlign=middle;resizable=0;points=[];autosize=1;strokeColor=none;fillColor=none;" parent="1" vertex="1">
          <mxGeometry x="150" y="-10" width="40" height="30" as="geometry" />
        </mxCell>
        <mxCell id="WmbxqslVKY_WEtifSj2N-59" value="sim" style="text;html=1;align=center;verticalAlign=middle;resizable=0;points=[];autosize=1;strokeColor=none;fillColor=none;" parent="1" vertex="1">
          <mxGeometry x="225" y="-85" width="40" height="30" as="geometry" />
        </mxCell>
        <mxCell id="2ZzVXjPrMufIAR6hpr8i-2" style="edgeStyle=orthogonalEdgeStyle;rounded=0;orthogonalLoop=1;jettySize=auto;html=1;exitX=0.5;exitY=1;exitDx=0;exitDy=0;entryX=0.5;entryY=0;entryDx=0;entryDy=0;" edge="1" parent="1" source="2ZzVXjPrMufIAR6hpr8i-1" target="uq9chqA1jIwlqfnX0zTk-171">
          <mxGeometry relative="1" as="geometry" />
        </mxCell>
        <mxCell id="2ZzVXjPrMufIAR6hpr8i-1" value="&lt;p style=&quot;line-height: 120%;&quot;&gt;&lt;font style=&quot;font-size: 24px;&quot;&gt;Inicio&lt;/font&gt;&lt;/p&gt;" style="ellipse;whiteSpace=wrap;html=1;" vertex="1" parent="1">
          <mxGeometry x="160" y="825" width="160" height="80" as="geometry" />
        </mxCell>
        <mxCell id="2ZzVXjPrMufIAR6hpr8i-5" value="não" style="text;html=1;align=center;verticalAlign=middle;resizable=0;points=[];autosize=1;strokeColor=none;fillColor=none;" vertex="1" parent="1">
          <mxGeometry x="140" y="1188" width="40" height="30" as="geometry" />
        </mxCell>
        <mxCell id="2ZzVXjPrMufIAR6hpr8i-9" style="edgeStyle=orthogonalEdgeStyle;rounded=0;orthogonalLoop=1;jettySize=auto;html=1;exitX=0.5;exitY=1;exitDx=0;exitDy=0;entryX=0.5;entryY=0;entryDx=0;entryDy=0;" edge="1" parent="1" source="2ZzVXjPrMufIAR6hpr8i-6" target="2ZzVXjPrMufIAR6hpr8i-8">
          <mxGeometry relative="1" as="geometry" />
        </mxCell>
        <mxCell id="2ZzVXjPrMufIAR6hpr8i-6" value="&lt;p style=&quot;line-height: 120%;&quot;&gt;&lt;font style=&quot;font-size: 24px;&quot;&gt;Inicio&lt;/font&gt;&lt;/p&gt;" style="ellipse;whiteSpace=wrap;html=1;" vertex="1" parent="1">
          <mxGeometry x="160" y="1460" width="160" height="80" as="geometry" />
        </mxCell>
        <mxCell id="2ZzVXjPrMufIAR6hpr8i-10" style="edgeStyle=orthogonalEdgeStyle;rounded=0;orthogonalLoop=1;jettySize=auto;html=1;exitX=1;exitY=0.5;exitDx=0;exitDy=0;" edge="1" parent="1" source="2ZzVXjPrMufIAR6hpr8i-8">
          <mxGeometry relative="1" as="geometry">
            <mxPoint x="354" y="1640" as="targetPoint" />
          </mxGeometry>
        </mxCell>
        <mxCell id="2ZzVXjPrMufIAR6hpr8i-16" style="edgeStyle=orthogonalEdgeStyle;rounded=0;orthogonalLoop=1;jettySize=auto;html=1;exitX=0.5;exitY=1;exitDx=0;exitDy=0;" edge="1" parent="1" source="2ZzVXjPrMufIAR6hpr8i-8">
          <mxGeometry relative="1" as="geometry">
            <mxPoint x="240" y="1740" as="targetPoint" />
          </mxGeometry>
        </mxCell>
        <mxCell id="2ZzVXjPrMufIAR6hpr8i-8" value="Apagar&lt;div&gt;informação&lt;/div&gt;" style="rhombus;whiteSpace=wrap;html=1;" vertex="1" parent="1">
          <mxGeometry x="187.5" y="1590" width="105" height="100" as="geometry" />
        </mxCell>
        <mxCell id="2ZzVXjPrMufIAR6hpr8i-12" value="sim" style="text;html=1;align=center;verticalAlign=middle;resizable=0;points=[];autosize=1;strokeColor=none;fillColor=none;" vertex="1" parent="1">
          <mxGeometry x="300" y="1618" width="40" height="30" as="geometry" />
        </mxCell>
        <mxCell id="2ZzVXjPrMufIAR6hpr8i-14" style="edgeStyle=orthogonalEdgeStyle;rounded=0;orthogonalLoop=1;jettySize=auto;html=1;exitX=1;exitY=0.5;exitDx=0;exitDy=0;" edge="1" parent="1" source="2ZzVXjPrMufIAR6hpr8i-13">
          <mxGeometry relative="1" as="geometry">
            <mxPoint x="510" y="1640" as="targetPoint" />
          </mxGeometry>
        </mxCell>
        <mxCell id="2ZzVXjPrMufIAR6hpr8i-13" value="você tem certeza?" style="rhombus;whiteSpace=wrap;html=1;" vertex="1" parent="1">
          <mxGeometry x="354" y="1590" width="105" height="100" as="geometry" />
        </mxCell>
        <mxCell id="2ZzVXjPrMufIAR6hpr8i-15" value="informação apagada" style="rounded=0;whiteSpace=wrap;html=1;" vertex="1" parent="1">
          <mxGeometry x="510" y="1620" width="135" height="50" as="geometry" />
        </mxCell>
        <mxCell id="2ZzVXjPrMufIAR6hpr8i-19" style="edgeStyle=orthogonalEdgeStyle;rounded=0;orthogonalLoop=1;jettySize=auto;html=1;exitX=0.5;exitY=1;exitDx=0;exitDy=0;" edge="1" parent="1" source="2ZzVXjPrMufIAR6hpr8i-17">
          <mxGeometry relative="1" as="geometry">
            <mxPoint x="240" y="1840" as="targetPoint" />
          </mxGeometry>
        </mxCell>
        <mxCell id="2ZzVXjPrMufIAR6hpr8i-17" value="Cancelar" style="rounded=0;whiteSpace=wrap;html=1;" vertex="1" parent="1">
          <mxGeometry x="172.5" y="1740" width="135" height="50" as="geometry" />
        </mxCell>
        <mxCell id="2ZzVXjPrMufIAR6hpr8i-18" value="não" style="text;html=1;align=center;verticalAlign=middle;resizable=0;points=[];autosize=1;strokeColor=none;fillColor=none;" vertex="1" parent="1">
          <mxGeometry x="210" y="1698" width="40" height="30" as="geometry" />
        </mxCell>
        <mxCell id="2ZzVXjPrMufIAR6hpr8i-20" value="voltar a tela anterior" style="rounded=0;whiteSpace=wrap;html=1;" vertex="1" parent="1">
          <mxGeometry x="172.5" y="1840" width="135" height="50" as="geometry" />
        </mxCell>
        <mxCell id="2ZzVXjPrMufIAR6hpr8i-22" style="edgeStyle=orthogonalEdgeStyle;rounded=0;orthogonalLoop=1;jettySize=auto;html=1;exitX=0.5;exitY=1;exitDx=0;exitDy=0;" edge="1" parent="1" source="2ZzVXjPrMufIAR6hpr8i-21">
          <mxGeometry relative="1" as="geometry">
            <mxPoint x="982" y="1570" as="targetPoint" />
          </mxGeometry>
        </mxCell>
        <mxCell id="2ZzVXjPrMufIAR6hpr8i-21" value="&lt;p style=&quot;line-height: 120%;&quot;&gt;&lt;font style=&quot;font-size: 24px;&quot;&gt;Inicio&lt;/font&gt;&lt;/p&gt;" style="ellipse;whiteSpace=wrap;html=1;" vertex="1" parent="1">
          <mxGeometry x="901.88" y="1440" width="160" height="80" as="geometry" />
        </mxCell>
        <mxCell id="2ZzVXjPrMufIAR6hpr8i-26" style="edgeStyle=orthogonalEdgeStyle;rounded=0;orthogonalLoop=1;jettySize=auto;html=1;exitX=1;exitY=0.5;exitDx=0;exitDy=0;" edge="1" parent="1" source="2ZzVXjPrMufIAR6hpr8i-25">
          <mxGeometry relative="1" as="geometry">
            <mxPoint x="1080" y="1620" as="targetPoint" />
          </mxGeometry>
        </mxCell>
        <mxCell id="2ZzVXjPrMufIAR6hpr8i-27" style="edgeStyle=orthogonalEdgeStyle;rounded=0;orthogonalLoop=1;jettySize=auto;html=1;exitX=0.5;exitY=1;exitDx=0;exitDy=0;" edge="1" parent="1" source="2ZzVXjPrMufIAR6hpr8i-25">
          <mxGeometry relative="1" as="geometry">
            <mxPoint x="982" y="1720" as="targetPoint" />
          </mxGeometry>
        </mxCell>
        <mxCell id="2ZzVXjPrMufIAR6hpr8i-25" value="editar a receber" style="rhombus;whiteSpace=wrap;html=1;" vertex="1" parent="1">
          <mxGeometry x="929.38" y="1570" width="105" height="100" as="geometry" />
        </mxCell>
        <mxCell id="2ZzVXjPrMufIAR6hpr8i-28" value="cancelar" style="rounded=0;whiteSpace=wrap;html=1;" vertex="1" parent="1">
          <mxGeometry x="914.38" y="1720" width="135" height="50" as="geometry" />
        </mxCell>
        <mxCell id="2ZzVXjPrMufIAR6hpr8i-29" value="não" style="text;html=1;align=center;verticalAlign=middle;resizable=0;points=[];autosize=1;strokeColor=none;fillColor=none;" vertex="1" parent="1">
          <mxGeometry x="940" y="1678" width="40" height="30" as="geometry" />
        </mxCell>
        <mxCell id="2ZzVXjPrMufIAR6hpr8i-30" value="inserir dados" style="rounded=0;whiteSpace=wrap;html=1;" vertex="1" parent="1">
          <mxGeometry x="1082" y="1598" width="135" height="50" as="geometry" />
        </mxCell>
      </root>
    </mxGraphModel>
  </diagram>
</mxfile>
